<svg width="40" height="40" viewBox="0 0 40 40" fill="none" xmlns="http://www.w3.org/2000/svg">
<path d="M20 11.1111C18.2419 11.1111 16.5234 11.6324 15.0616 12.6092C13.5998 13.5859 12.4605 14.9741 11.7877 16.5984C11.115 18.2226 10.9389 20.0099 11.2819 21.7341C11.6249 23.4584 12.4715 25.0423 13.7146 26.2854C14.9577 27.5285 16.5416 28.3751 18.2659 28.7181C19.9901 29.0611 21.7774 28.885 23.4016 28.2123C25.0259 27.5395 26.4141 26.4002 27.3908 24.9384C28.3676 23.4766 28.8889 21.7581 28.8889 20C28.8864 17.6433 27.9491 15.3838 26.2827 13.7173C24.6162 12.0509 22.3567 11.1136 20 11.1111ZM20 24.4444C19.121 24.4444 18.2617 24.1838 17.5308 23.6954C16.7999 23.2071 16.2303 22.5129 15.8939 21.7008C15.5575 20.8887 15.4695 19.9951 15.641 19.1329C15.8124 18.2708 16.2357 17.4789 16.8573 16.8573C17.4789 16.2357 18.2708 15.8124 19.1329 15.641C19.9951 15.4695 20.8887 15.5575 21.7008 15.8939C22.5129 16.2303 23.2071 16.7999 23.6954 17.5308C24.1838 18.2617 24.4444 19.121 24.4444 20C24.4444 21.1787 23.9762 22.3092 23.1427 23.1427C22.3092 23.9762 21.1787 24.4444 20 24.4444ZM28.8889 0H11.1111C8.16531 0.00343076 5.34115 1.17516 3.25816 3.25816C1.17516 5.34115 0.00343076 8.16531 0 11.1111V28.8889C0.00343076 31.8347 1.17516 34.6588 3.25816 36.7418C5.34115 38.8248 8.16531 39.9966 11.1111 40H28.8889C31.8347 39.9966 34.6588 38.8248 36.7418 36.7418C38.8248 34.6588 39.9966 31.8347 40 28.8889V11.1111C39.9966 8.16531 38.8248 5.34115 36.7418 3.25816C34.6588 1.17516 31.8347 0.00343076 28.8889 0ZM35.5556 28.8889C35.5556 30.657 34.8532 32.3527 33.6029 33.6029C32.3527 34.8532 30.657 35.5556 28.8889 35.5556H11.1111C9.343 35.5556 7.64731 34.8532 6.39707 33.6029C5.14682 32.3527 4.44444 30.657 4.44444 28.8889V11.1111C4.44444 9.343 5.14682 7.64731 6.39707 6.39707C7.64731 5.14682 9.343 4.44444 11.1111 4.44444H28.8889C30.657 4.44444 32.3527 5.14682 33.6029 6.39707C34.8532 7.64731 35.5556 9.343 35.5556 11.1111V28.8889ZM32.5926 10.3704C32.5926 10.9564 32.4188 11.5292 32.0932 12.0165C31.7677 12.5038 31.3049 12.8835 30.7635 13.1078C30.2221 13.3321 29.6263 13.3907 29.0516 13.2764C28.4768 13.1621 27.9489 12.8799 27.5345 12.4655C27.1201 12.0511 26.8379 11.5232 26.7236 10.9484C26.6093 10.3737 26.6679 9.7779 26.8922 9.23649C27.1165 8.69508 27.4962 8.23233 27.9835 7.90676C28.4708 7.58118 29.0436 7.40741 29.6296 7.40741C30.4155 7.40741 31.1691 7.71958 31.7248 8.27524C32.2804 8.8309 32.5926 9.58454 32.5926 10.3704Z" fill="#694141"/>
</svg>
