<svg width="40" height="32" viewBox="0 0 40 32" fill="none" xmlns="http://www.w3.org/2000/svg">
<path d="M36.6365 26.5H39.6643C39.5479 27.7753 38.989 28.9762 38.0761 29.8891C37.1632 30.802 35.9623 31.3609 34.687 31.4772V28.4495C35.1637 28.3522 35.6056 28.117 35.9548 27.7678C36.304 27.4186 36.5392 26.9767 36.6365 26.5ZM39.687 25.5H36.687V4.5H38.187H38.687V4V2.5H39.687V25.5ZM39.2477 0.93934C39.4074 1.09904 39.5273 1.29105 39.6012 1.5H38.687V0.585786C38.896 0.659666 39.088 0.779638 39.2477 0.93934ZM37.687 1.5H36.187H35.687V2V3.5H4.68701V2V1.5H4.18701H2.68701V0.5H37.687V1.5ZM36.687 3.5V2.5H37.687V3.5H36.687ZM2.68701 2.5H3.68701V3.5H2.68701V2.5ZM2.18701 4.5H3.68701V25.5H0.687012V2.5H1.68701V4V4.5H2.18701ZM0.709771 26.5H3.73751C3.83483 26.9767 4.07005 27.4186 4.41925 27.7678C4.76844 28.117 5.21029 28.3522 5.68701 28.4495V31.4772C4.41168 31.3609 3.21086 30.802 2.29792 29.8891C1.38499 28.9762 0.826146 27.7753 0.709771 26.5ZM6.68701 31.5V28.5H33.687V31.5H6.68701ZM1.68701 1.5H0.772797C0.846677 1.29105 0.966649 1.09904 1.12635 0.93934C1.28605 0.779638 1.47806 0.659666 1.68701 0.585786V1.5Z" fill="#694141" stroke="#694141"/>
<path d="M2.18701 2L20.187 20L38.187 2" stroke="#694141" stroke-width="4" stroke-linecap="round" stroke-linejoin="round"/>
</svg>
