<svg width="40" height="40" viewBox="0 0 40 40" fill="none" xmlns="http://www.w3.org/2000/svg">
<g clip-path="url(#clip0_206_3601)">
<path d="M5.94589 9.72967C7.9361 9.72967 9.54949 8.11628 9.54949 6.12606C9.54949 4.13585 7.9361 2.52246 5.94589 2.52246C3.95567 2.52246 2.34229 4.13585 2.34229 6.12606C2.34229 8.11628 3.95567 9.72967 5.94589 9.72967Z" stroke="#C78E70" stroke-width="4"/>
<path d="M2.34229 15.1353H9.54949V37.6578H2.34229V15.1353ZM16.7567 23.6938V37.6578H23.063V25.0452C23.063 22.7929 24.4144 20.9911 26.6666 20.9911C28.9189 20.9911 30.2702 23.2434 30.2702 25.0452V37.6578H36.5765V23.6938C36.5765 20.9911 33.4234 15.1353 26.6666 15.1353C19.9099 15.1353 16.7567 20.9911 16.7567 23.6938Z" stroke="#C78E70" stroke-width="4" stroke-linejoin="round"/>
</g>
<defs>
<clipPath id="clip0_206_3601">
<rect width="38.9189" height="40" fill="white"/>
</clipPath>
</defs>
</svg>
