<svg width="18" height="18" viewBox="0 0 18 18" fill="none" xmlns="http://www.w3.org/2000/svg">
<path d="M12.1846 11.6526C13.6615 10.0421 15.6923 9.18947 18 9.09474C15.6923 9 13.6615 8.14737 12.1846 6.53684C10.6154 4.92631 9.32308 2.46316 9.23077 0.0947356V0C9.13846 2.46316 7.93846 4.83158 6.36923 6.53684C4.8 8.05263 2.86154 8.90526 0.461538 9H0C0.0923079 9 0.184616 9 0.276924 9.09474H0.461538C2.86154 9.18947 4.8 10.0421 6.36923 11.5579C7.93846 13.1684 9.13846 15.5368 9.23077 17.9053V18C9.41538 15.6316 10.6154 13.2632 12.1846 11.6526Z" fill="black"/>
</svg>
