<svg width="53" height="41" viewBox="0 0 53 41" fill="none" xmlns="http://www.w3.org/2000/svg">
<path fill-rule="evenodd" clip-rule="evenodd" d="M7.22694 1.72678L7.24104 1.71172L7.45055 1.48428C7.91681 0.989679 8.4256 0.492075 8.97169 0L10.045 1.76695L24.822 25.3047V0.941749H25.431V26.2792H22.4934L8.3978 3.63059L8.3516 3.55211C8.40262 6.89945 11.3131 12.4539 13.1594 15.9773L13.1601 15.9786L13.1613 15.981C13.4735 16.5767 13.7552 17.1144 13.9874 17.5733C17.0443 23.6209 21.9241 33.6537 15.3115 39.0064C5.86359 46.3645 -3.81836 30.0008 1.52549 22.6965C-0.830389 14.799 1.15158 8.68546 6.09382 2.98875C6.41651 2.61754 6.8098 2.17303 7.21934 1.73502L7.22694 1.72678ZM11.8864 19.7398C14.4886 24.7523 19.5038 34.4131 14.6802 38.3177C7.99806 43.8921 0.113189 31.1207 2.13887 24.3926C2.88236 26.1488 3.96048 27.7583 5.39285 29.0396C10.7406 33.2742 13.6569 26.9421 10.4733 22.4864C8.16201 19.2275 4.90762 19.2142 2.23356 21.8338C0.358416 14.3332 2.15675 8.86467 6.82984 3.5513C5.91944 7.95492 9.05387 14.1571 11.0536 18.1139L11.0589 18.1244C11.1555 18.3156 11.2495 18.5016 11.3403 18.6819C11.5045 19.0041 11.688 19.3576 11.8854 19.7379L11.8864 19.7398ZM6.0314 28.3986C4.45378 26.9866 3.33024 25.1657 2.63623 23.1626C4.32473 20.1824 7.63884 20.0647 9.71446 22.9765C12.1861 26.4365 10.6529 31.98 6.0314 28.3986Z" fill="#C78E70"/>
<path fill-rule="evenodd" clip-rule="evenodd" d="M30.9311 33.7626H28.0652V8.42515H38.669C42.9678 8.42515 45.7263 11.3848 45.7263 15.4272C45.7263 19.614 42.6096 22.5737 38.454 22.5737C37.7017 22.5737 36.9136 22.5015 36.0897 22.2849L46.4069 33.7626H43.2186L30.9311 19.6501V33.7626ZM37.6301 21.7075C40.8901 21.7075 43.1111 19.2531 43.1111 15.5355C43.1111 11.8179 40.7109 9.03874 37.0569 9.03874H30.9311V18.8922C33.3671 20.8412 35.6598 21.7075 37.6301 21.7075Z" fill="#C78E70"/>
<path d="M52.0866 25.8078C51.0476 25.8493 50.1333 26.2234 49.4684 26.9299C48.7619 27.6364 48.2216 28.6753 48.1385 29.7143V29.6727C48.097 28.6338 47.5567 27.5948 46.8502 26.8883C46.1437 26.2234 45.271 25.8493 44.1905 25.8078H44.1074C44.0658 25.7662 44.0242 25.7662 43.9827 25.7662H44.1905C45.271 25.7247 46.1437 25.3506 46.8502 24.6857C47.5567 23.9377 48.097 22.8987 48.1385 21.8182V21.8597C48.1801 22.8987 48.7619 23.9792 49.4684 24.6857C50.1333 25.3922 51.0476 25.7662 52.0866 25.8078Z" fill="#C78E70"/>
</svg>
