<svg width="40" height="40" viewBox="0 0 40 40" fill="none" xmlns="http://www.w3.org/2000/svg">
<path d="M4.42405 3.93715H13.2629L16.1115 11.0594L11.5345 14.1107C11.265 14.2906 11.044 14.5341 10.8912 14.8198C10.7384 15.1056 10.6585 15.4246 10.6585 15.7486C10.6644 15.9336 10.6585 15.7506 10.6585 15.7506V15.7919C10.6597 15.8799 10.6636 15.9679 10.6703 16.0557C10.6821 16.2171 10.7018 16.4356 10.7392 16.7053C10.816 17.2368 10.9637 17.9691 11.2511 18.8314C11.8298 20.5637 12.9637 22.8059 15.1725 25.0147C17.3812 27.2234 19.6234 28.3573 21.3538 28.9361C22.218 29.2235 22.9483 29.3691 23.4838 29.4479C23.786 29.4901 24.0902 29.5164 24.3952 29.5266L24.4208 29.5286H24.4366C24.4366 29.5286 24.657 29.5168 24.4385 29.5286C24.804 29.5284 25.1622 29.4265 25.4731 29.2342C25.7839 29.0419 26.0351 28.7669 26.1984 28.44L27.5174 25.8021L36.25 27.2588V35.7631C32.0943 36.3635 20.8695 36.956 12.0503 28.1368C3.2311 19.3176 3.82167 8.09084 4.42405 3.93715ZM14.7394 16.7053L18.2966 14.3351C19.0481 13.8339 19.6043 13.0895 19.8721 12.2267C20.1398 11.364 20.1028 10.4354 19.7671 9.59679L16.9186 2.4745C16.6263 1.74397 16.1218 1.11778 15.4702 0.67672C14.8186 0.235656 14.0498 -5.27448e-05 13.2629 8.85311e-09H4.32169C2.53226 8.85311e-09 0.849126 1.24217 0.555809 3.18318C-0.113506 7.59672 -1.02102 20.6326 9.26674 30.9204C19.5545 41.2081 32.5904 40.2987 37.0039 39.6313C38.9449 39.336 40.1871 37.6549 40.1871 35.8654V27.2588C40.1872 26.3268 39.8567 25.425 39.2544 24.7138C38.652 24.0026 37.8169 23.5281 36.8976 23.3748L28.165 21.9201C27.3345 21.7814 26.4814 21.9127 25.7309 22.2947C24.9805 22.6766 24.3723 23.2891 23.9956 24.0422L23.3145 25.4064C23.0736 25.3471 22.8352 25.2781 22.5999 25.1997C21.3794 24.7942 19.6844 23.9595 17.956 22.2311C16.2276 20.5027 15.3929 18.8077 14.9874 17.5853C14.8906 17.2963 14.8085 17.0026 14.7413 16.7053H14.7394Z" fill="#C78E70"/>
</svg>
