<svg width="16" height="16" viewBox="0 0 16 16" fill="none" xmlns="http://www.w3.org/2000/svg">
<path d="M6.01159 6.01425L6.02209 6.00395L6.03197 5.99305C6.94586 4.985 7.73051 3.72606 8.21004 2.34429C8.71302 3.74136 9.53935 5.03229 10.4648 5.99804C11.2841 6.90304 12.2789 7.55737 13.3923 7.96512C12.2789 8.37286 11.2841 9.02719 10.4648 9.9322C9.53833 10.899 8.74903 12.1517 8.25049 13.5148C7.77432 12.1133 6.96808 10.8266 6.02225 9.84128L6.017 9.83581L6.01159 9.83051C5.12421 8.96045 4.10947 8.31788 2.95506 7.92238C4.10947 7.52687 5.12421 6.8843 6.01159 6.01425Z" stroke="black"/>
</svg>
