<svg width="30" height="40" viewBox="0 0 30 40" fill="none" xmlns="http://www.w3.org/2000/svg">
<g clip-path="url(#clip0_206_3599)">
<path d="M15.9375 0.507812C7.92188 0.507812 0 5.85156 0 14.5C0 20 3.09375 23.125 4.96875 23.125C5.74219 23.125 6.1875 20.9688 6.1875 20.3594C6.1875 19.6328 4.33594 18.0859 4.33594 15.0625C4.33594 8.78125 9.11719 4.32813 15.3047 4.32813C20.625 4.32813 24.5625 7.35156 24.5625 12.9062C24.5625 17.0547 22.8984 24.8359 17.5078 24.8359C15.5625 24.8359 13.8984 23.4297 13.8984 21.4141C13.8984 18.4609 15.9609 15.6016 15.9609 12.5547C15.9609 7.38281 8.625 8.32031 8.625 14.5703C8.625 15.8828 8.78906 17.3359 9.375 18.5312C8.29687 23.1719 6.09375 30.0859 6.09375 34.8672C6.09375 36.3437 6.30469 37.7969 6.44531 39.2734C6.71094 39.5703 6.57813 39.5391 6.98438 39.3906C10.9219 34 10.7813 32.9453 12.5625 25.8906C13.5234 27.7187 16.0078 28.7031 17.9766 28.7031C26.2734 28.7031 30 20.6172 30 13.3281C30 5.57031 23.2969 0.507812 15.9375 0.507812Z" fill="#694141"/>
</g>
<defs>
<clipPath id="clip0_206_3599">
<rect width="30" height="40" fill="white"/>
</clipPath>
</defs>
</svg>
