<svg width="80" height="63" viewBox="0 0 80 63" fill="none" xmlns="http://www.w3.org/2000/svg">
<path fill-rule="evenodd" clip-rule="evenodd" d="M7.24104 1.71172L7.22694 1.72678L7.21934 1.73502C6.8098 2.17303 6.41651 2.61754 6.09382 2.98875C1.15158 8.68546 -0.830388 14.799 1.52549 22.6965C-3.81836 30.0008 5.86359 46.3645 15.3115 39.0064C21.9241 33.6537 17.0443 23.6209 13.9874 17.5733C13.7552 17.1144 13.4735 16.5767 13.1613 15.981L13.1604 15.9792L13.1601 15.9786L13.1598 15.9781L13.1594 15.9773C11.3131 12.4539 8.40262 6.89945 8.3516 3.55211L8.3978 3.63059L22.4934 26.2792H25.431V0.941749H24.822V25.3047L10.045 1.76695L8.97169 0C8.4256 0.492075 7.91681 0.989679 7.45055 1.48428L7.24104 1.71172ZM14.6802 38.3177C19.5038 34.4131 14.4886 24.7523 11.8864 19.7398L11.8854 19.7379C11.688 19.3576 11.5045 19.0041 11.3403 18.6819C11.2495 18.5016 11.1555 18.3156 11.0589 18.1244L11.0536 18.1139C9.05387 14.1571 5.91944 7.95492 6.82984 3.5513C2.15675 8.86467 0.358416 14.3332 2.23356 21.8338C4.90762 19.2142 8.16201 19.2275 10.4733 22.4864C13.6569 26.9421 10.7406 33.2742 5.39285 29.0396C3.96048 27.7583 2.88236 26.1488 2.13887 24.3926C0.113189 31.1207 7.99806 43.8921 14.6802 38.3177ZM2.63623 23.1626C3.33024 25.1657 4.45378 26.9866 6.0314 28.3986C10.6529 31.98 12.1861 26.4365 9.71446 22.9765C7.63884 20.0647 4.32473 20.1824 2.63623 23.1626Z" fill="#8E5834"/>
<path fill-rule="evenodd" clip-rule="evenodd" d="M28.0652 33.7626H30.9311V19.6501L43.2186 33.7626H46.4069L36.0897 22.2849C36.9136 22.5015 37.7017 22.5737 38.454 22.5737C42.6096 22.5737 45.7263 19.614 45.7263 15.4272C45.7263 11.3848 42.9678 8.42515 38.669 8.42515H28.0652V33.7626ZM43.1111 15.5355C43.1111 19.2531 40.8901 21.7075 37.6301 21.7075C35.6598 21.7075 33.3671 20.8412 30.9311 18.8922V9.03874H37.0569C40.7109 9.03874 43.1111 11.8179 43.1111 15.5355Z" fill="#8E5834"/>
<path fill-rule="evenodd" clip-rule="evenodd" d="M19.9838 45.1744C19.9433 45.1842 19.9085 45.1939 19.8792 45.2037C19.3867 45.3228 18.9112 45.4845 18.4526 45.6887C17.994 45.8759 17.5695 46.0631 17.1788 46.2503C17.2637 46.1142 17.3232 45.9185 17.3572 45.6632C17.4081 45.4079 17.3657 45.2037 17.2298 45.0505C17.1109 44.9314 16.9241 44.8804 16.6693 44.8974C16.4146 44.9314 16.1683 45.025 15.9305 45.1782C15.6928 45.3313 15.472 45.4845 15.2682 45.6377C15.0644 45.8078 14.8691 45.978 14.6822 46.1482C14.5124 46.3184 14.3595 46.4971 14.2237 46.6842C13.884 47.0586 13.5783 47.4586 13.3066 47.884C13.0178 48.3094 12.7546 48.7519 12.5168 49.2114V49.1603C12.8395 48.2414 13.1877 47.3479 13.5613 46.48C13.6462 46.3439 13.7142 46.1992 13.7651 46.0461C13.8161 45.8929 13.884 45.7568 13.9689 45.6377C14.2576 45.1612 14.5464 44.7527 14.8351 44.4124C15.1408 44.055 15.3701 43.7487 15.5229 43.4934C15.5909 43.3573 15.6673 43.2382 15.7522 43.136C15.8371 43.0169 15.8796 42.8553 15.8796 42.651C15.8116 42.5319 15.7352 42.4724 15.6503 42.4724C15.5654 42.4724 15.472 42.5064 15.3701 42.5745C15.2852 42.6255 15.2002 42.6936 15.1153 42.7787C15.0474 42.8638 14.9879 42.9318 14.937 42.9829C14.3426 43.8508 13.7991 44.8208 13.3066 45.8929C12.797 46.948 12.347 48.0372 11.9564 49.1603C11.5657 50.2835 11.243 51.3982 10.9883 52.5043C10.7335 53.6105 10.5467 54.6486 10.4278 55.6186C10.4278 55.6866 10.4193 55.7632 10.4023 55.8483C10.3854 55.9504 10.3854 56.044 10.4023 56.1291C10.4023 56.2142 10.4278 56.2823 10.4788 56.3333C10.5127 56.3844 10.5722 56.4099 10.6571 56.4099C10.725 56.4099 10.7845 56.3588 10.8354 56.2567C10.8864 56.1546 10.9288 56.0355 10.9628 55.8994L11.0138 55.4909C11.0138 55.3548 11.0223 55.2442 11.0392 55.1591C11.311 53.4743 11.7186 51.9598 12.2621 50.6153C12.7886 49.2539 13.4934 48.0457 14.3765 46.9906L14.886 46.429C15.0729 46.2418 15.2682 46.0716 15.472 45.9185C15.6588 45.7653 15.8711 45.6121 16.1089 45.459C16.3466 45.3058 16.6354 45.2463 16.975 45.2803C17.043 45.5696 17.009 45.8163 16.8731 46.0206C16.7373 46.2248 16.6269 46.4205 16.5419 46.6077C15.9985 46.948 15.438 47.2969 14.8606 47.6543C14.3001 48.0116 13.7821 48.4286 13.3066 48.9051C13.2386 48.9731 13.1707 49.0497 13.1028 49.1348C13.0178 49.2199 12.9499 49.305 12.8989 49.3901C12.831 49.4922 12.7716 49.6198 12.7206 49.773C12.6527 49.9261 12.6527 50.0538 12.7206 50.1559C12.8225 50.292 12.9839 50.326 13.2047 50.258C13.4254 50.1899 13.6547 50.0793 13.8925 49.9261C14.1303 49.756 14.3595 49.5688 14.5803 49.3645C14.8181 49.1603 15.0049 48.9987 15.1408 48.8795C15.7862 48.2669 16.3806 47.5522 16.9241 46.7353C17.2977 46.5141 17.6883 46.3099 18.0959 46.1227C18.5036 45.9355 18.9451 45.7653 19.4207 45.6121C19.4716 45.5951 19.5396 45.5781 19.6245 45.5611C19.7051 45.5476 19.7858 45.5288 19.8665 45.5047C19.6291 46.1807 19.4037 46.8717 19.1902 47.5777C19.1392 47.7308 19.0968 47.901 19.0628 48.0882C19.0119 48.2584 18.9694 48.4286 18.9354 48.5987C18.9185 48.6838 18.9015 48.7859 18.8845 48.9051C18.8505 49.0072 18.8335 49.1093 18.8335 49.2114C18.8335 49.3135 18.8505 49.3986 18.8845 49.4667C18.9185 49.5347 18.9864 49.5688 19.0883 49.5688C19.1732 49.5688 19.2581 49.5177 19.3431 49.4156C19.428 49.3135 19.5384 49.1603 19.6742 48.9561C19.7931 48.7519 19.946 48.5051 20.1328 48.2158C20.3196 47.9095 20.5574 47.5522 20.8461 47.1437C20.999 46.9395 21.1518 46.7438 21.3047 46.5566C21.4575 46.3524 21.6104 46.1567 21.7632 45.9695C21.95 45.7993 22.1199 45.6292 22.2727 45.459C22.4256 45.2718 22.6464 45.1356 22.9351 45.0505C23.054 45.2037 23.1219 45.4334 23.1389 45.7398C23.1559 46.0291 23.1644 46.3269 23.1644 46.6332C23.1814 46.9225 23.2238 47.1863 23.2918 47.4245C23.3597 47.6628 23.4956 47.8074 23.6994 47.8585C23.8862 47.8925 24.056 47.85 24.2089 47.7308C24.3787 47.6117 24.5231 47.5011 24.642 47.399C24.7778 47.2629 24.9052 47.1437 25.0241 47.0416L25.3807 46.7353C25.6355 46.5481 25.8733 46.3354 26.0941 46.0971C26.177 46.0013 26.2647 45.9114 26.3572 45.8275L26.3616 45.8344L26.3665 45.8419C26.2307 46.1482 26.0863 46.4545 25.9334 46.7608C25.7806 47.0672 25.7212 47.4415 25.7551 47.884C25.84 48.0372 25.9334 48.1308 26.0353 48.1648C26.0693 48.1648 26.0948 48.1733 26.1118 48.1903C26.2986 48.1903 26.4345 48.1563 26.5194 48.0882C26.8591 47.901 27.1308 47.6202 27.3346 47.2458C27.5554 46.8544 27.7167 46.4545 27.8186 46.0461C28.498 45.8249 29.1349 45.5611 29.7293 45.2548C30.3237 44.9314 30.8842 44.5911 31.4107 44.2337C31.9542 43.8593 32.4722 43.4679 32.9647 43.0595L34.4423 41.8342C33.678 43.4849 32.9732 45.2122 32.3278 47.0161C31.6994 48.82 31.1644 50.7175 30.7228 52.7085C30.6209 53.168 30.5105 53.6615 30.3917 54.1891C30.2728 54.7166 30.2133 55.2612 30.2133 55.8228C30.2133 55.993 30.2303 56.1631 30.2643 56.3333C30.2982 56.5205 30.4171 56.6311 30.6209 56.6652C30.7059 56.6481 30.7738 56.6141 30.8247 56.5631C30.8927 56.529 30.9181 56.4695 30.9012 56.3844C30.9012 56.2993 30.8672 56.2567 30.7993 56.2567C30.7483 56.2567 30.6974 56.2227 30.6464 56.1546C30.6634 55.3888 30.7483 54.6571 30.9012 53.9593C31.071 53.2616 31.2408 52.5809 31.4107 51.9172C32.3618 48.2754 33.5676 44.8719 35.0282 41.7066C35.1131 41.5534 35.1811 41.4087 35.232 41.2726C35.283 41.1194 35.3509 40.9748 35.4358 40.8387C35.5037 40.7365 35.5972 40.6344 35.716 40.5323L36.0472 40.2005C36.3699 39.8601 36.6756 39.5283 36.9643 39.2049L37.8305 38.1839C38.5438 38.1498 39.2911 38.1243 40.0723 38.1073C40.8536 38.0903 41.6179 38.0903 42.3651 38.1073H43.1039C43.3757 38.1073 43.6049 38.1498 43.7918 38.2349C43.8597 38.269 43.9106 38.3115 43.9446 38.3626C43.9786 38.3966 44.038 38.3966 44.123 38.3626C44.2418 38.3285 44.2673 38.2434 44.1994 38.1073C44.1654 38.0222 44.123 37.9797 44.072 37.9797C44.021 37.9627 43.9786 37.9371 43.9446 37.9031C43.6219 37.7669 43.2313 37.7074 42.7727 37.7244C42.3142 37.7244 41.8896 37.7414 41.499 37.7755C40.9045 37.8095 40.3186 37.835 39.7412 37.852C39.1807 37.852 38.6202 37.8691 38.0598 37.9031L39.0788 36.4736C39.1467 36.3375 39.2232 36.2098 39.3081 36.0907C39.393 35.9716 39.4694 35.8439 39.5374 35.7078C39.6053 35.5717 39.6647 35.427 39.7157 35.2738C39.7666 35.1207 39.7836 34.9505 39.7666 34.7633C39.6647 34.6612 39.5543 34.6187 39.4355 34.6357C39.3166 34.6357 39.1977 34.6782 39.0788 34.7633C38.9599 34.8314 38.841 34.9165 38.7221 35.0186L38.4674 35.2738C38.0768 35.6653 37.7031 36.1162 37.3465 36.6268C37.0068 37.1203 36.7011 37.5712 36.4293 37.9797C35.1556 38.0137 33.9328 38.0818 32.7609 38.1839C31.589 38.286 30.3662 38.3541 29.0924 38.3881C29.0075 38.3541 28.9396 38.3115 28.8886 38.2605C28.8377 38.1924 28.7527 38.1498 28.6339 38.1328C28.498 38.1328 28.3876 38.1584 28.3027 38.2094C28.2177 38.2605 28.1668 38.3541 28.1498 38.4902C28.1668 38.6774 28.2517 38.788 28.4046 38.822C28.5744 38.8391 28.7357 38.8391 28.8886 38.822C30.1284 38.737 31.3512 38.6349 32.5571 38.5157C33.7629 38.3966 35.0027 38.32 36.2765 38.286C36.0048 38.7284 35.75 39.1794 35.5122 39.6389C35.2914 40.0814 35.0622 40.5323 34.8244 40.9918C34.3319 41.4853 33.8224 41.9533 33.2959 42.3958C32.7694 42.8212 32.2259 43.2467 31.6654 43.6721C31.071 44.0635 30.4681 44.4379 29.8567 44.7953C29.2622 45.1527 28.5829 45.442 27.8186 45.6632C27.8186 45.527 27.8016 45.4164 27.7677 45.3313C27.7507 45.2463 27.7252 45.1612 27.6913 45.0761C27.7592 45.0591 27.8271 45.0165 27.8951 44.9484C27.963 44.8634 28.0139 44.7783 28.0479 44.6932C28.0989 44.5911 28.1074 44.4975 28.0734 44.4124C28.0564 44.3273 27.997 44.2592 27.8951 44.2082C27.6573 44.1912 27.4875 44.2507 27.3855 44.3869C27.3006 44.523 27.1987 44.6421 27.0798 44.7442C26.7911 44.7442 26.5618 44.8634 26.392 45.1016C26.2721 45.2546 26.2256 45.4111 26.2527 45.571C25.883 45.8623 25.5838 46.1142 25.3553 46.3269C25.1175 46.5481 24.9137 46.7353 24.7439 46.8885C24.574 47.0416 24.4127 47.1693 24.2598 47.2714C24.124 47.3565 23.9711 47.433 23.8013 47.5011C23.6824 47.3479 23.6144 47.1182 23.5975 46.8119L23.5465 45.8929C23.5295 45.5696 23.4871 45.2888 23.4191 45.0505C23.3512 44.8123 23.2068 44.6762 22.986 44.6421C22.8162 44.6251 22.6379 44.6762 22.4511 44.7953C22.2812 44.9144 22.1029 45.0676 21.9161 45.2548C21.7462 45.4249 21.5764 45.6121 21.4066 45.8163C21.2537 46.0206 21.1094 46.1907 20.9735 46.3269C20.7187 46.6672 20.4555 47.0331 20.1837 47.4245C19.929 47.7989 19.6827 48.1563 19.445 48.4966C19.5808 47.9691 19.7337 47.4671 19.9035 46.9906C20.0564 46.4971 20.2177 46.0035 20.3875 45.51C21.0669 45.0165 21.6613 44.4464 22.1708 43.7997C22.6803 43.1531 23.1814 42.4894 23.6739 41.8087C24.1664 41.128 24.6335 40.4302 25.075 39.7155C25.5336 39.0007 25.9497 38.252 26.3233 37.4691C26.3913 37.2479 26.4677 36.9841 26.5526 36.6778C26.6375 36.3715 26.5951 36.1077 26.4252 35.8865C26.3233 35.8014 26.2129 35.7674 26.0941 35.7844C25.9922 35.7844 25.8733 35.8014 25.7374 35.8354C25.4487 35.9375 25.1939 36.1077 24.9731 36.346C24.7524 36.5672 24.5401 36.7969 24.3363 37.0352C24.1155 37.2905 23.9032 37.5457 23.6994 37.801C23.5125 38.0392 23.3512 38.2775 23.2153 38.5157C22.3492 39.8431 21.5849 41.2641 20.9225 42.7787C20.5918 43.5549 20.2789 44.3535 19.9838 45.1744ZM12.4913 49.2369C12.5083 49.2539 12.5168 49.2454 12.5168 49.2114C12.4828 49.2114 12.4744 49.2199 12.4913 49.2369ZM14.3511 48.4201C14.8775 47.9946 15.4465 47.5947 16.0579 47.2203C16.0919 47.2203 16.1089 47.2118 16.1089 47.1948L16.1343 47.2203C15.9135 47.5096 15.6843 47.7819 15.4465 48.0372L14.7332 48.7519C14.4954 48.9902 14.2322 49.2284 13.9434 49.4667C13.6717 49.6879 13.349 49.8495 12.9754 49.9517C13.1112 49.6113 13.3066 49.322 13.5613 49.0838C13.8161 48.8455 14.0793 48.6243 14.3511 48.4201ZM26.1705 36.7289C26.1535 36.814 26.1365 36.882 26.1195 36.9331C26.0856 37.0862 26.0431 37.2139 25.9922 37.316L25.8648 37.5712C25.7799 37.7925 25.6865 38.0052 25.5845 38.2094L25.2788 38.771C24.5995 39.9282 23.8862 41.0344 23.1389 42.0895C22.3916 43.1446 21.5424 44.1061 20.5914 44.974C20.931 44.1231 21.2792 43.2977 21.6358 42.4979C21.9925 41.698 22.3746 40.9152 22.7822 40.1494C22.9521 39.8771 23.1559 39.5453 23.3937 39.1539C23.6484 38.7625 23.9117 38.3711 24.1834 37.9797C24.4721 37.5883 24.7693 37.2309 25.075 36.9076C25.3977 36.5842 25.7034 36.3545 25.9922 36.2183C26.0771 36.1843 26.128 36.1928 26.145 36.2439C26.179 36.2949 26.196 36.363 26.196 36.4481C26.196 36.5332 26.1875 36.6268 26.1705 36.7289ZM38.6202 36.5757L37.6012 37.9031C37.4993 37.9031 37.4059 37.9116 37.321 37.9286C37.2361 37.9456 37.1342 37.9456 37.0153 37.9286C37.355 37.384 37.7116 36.8565 38.0853 36.346C38.4589 35.8354 38.892 35.3845 39.3845 34.9931C39.4015 34.9931 39.41 35.0016 39.41 35.0186C39.2232 35.6142 38.9599 36.1332 38.6202 36.5757ZM36.5058 39.256C36.3359 39.4602 36.1491 39.6559 35.9453 39.8431C36.0812 39.5538 36.2255 39.2815 36.3784 39.0263C36.5312 38.771 36.6756 38.5072 36.8115 38.2349C36.8964 38.252 36.9813 38.252 37.0662 38.2349C37.1512 38.2179 37.2361 38.2179 37.321 38.2349C37.355 38.252 37.3465 38.2775 37.2955 38.3115C37.2616 38.3456 37.2361 38.3796 37.2191 38.4136L37.1172 38.5157C37.1002 38.5498 37.0832 38.5923 37.0662 38.6434C36.8794 38.8306 36.6926 39.0348 36.5058 39.256ZM27.462 45.7398C27.3771 45.7568 27.2582 45.7653 27.1053 45.7653C27.1393 45.6802 27.1817 45.6036 27.2327 45.5356C27.2836 45.4675 27.3346 45.3909 27.3855 45.3058C27.4365 45.3739 27.462 45.5185 27.462 45.7398ZM26.9015 46.1227H27.4365C27.2327 46.8374 26.8421 47.3565 26.2646 47.6798C26.2986 47.3394 26.3835 47.0586 26.5194 46.8374C26.6383 46.5992 26.7656 46.3609 26.9015 46.1227Z" fill="#8E5834"/>
<path fill-rule="evenodd" clip-rule="evenodd" d="M40.0212 45.6377C39.4438 45.7568 38.8833 45.7227 38.3398 45.5356C38.3398 45.3313 38.3058 45.1697 38.2379 45.0505L38.3908 44.7442C38.4417 44.6421 38.4757 44.523 38.4927 44.3869C38.4587 44.3188 38.4162 44.2592 38.3653 44.2082C38.3313 44.1571 38.2634 44.1401 38.1615 44.1571C38.0256 44.2252 37.9322 44.2847 37.8813 44.3358C37.6944 44.506 37.5246 44.7102 37.3717 44.9484C37.2359 45.1697 37.1 45.3994 36.9641 45.6377C36.8283 45.8929 36.7009 46.1652 36.582 46.4545C36.4631 46.7268 36.4037 47.0246 36.4037 47.3479C36.4546 47.5011 36.5226 47.6032 36.6075 47.6543L36.7603 47.7308C37.0321 47.7308 37.2444 47.6628 37.3972 47.5266C37.5501 47.3735 37.6774 47.2203 37.7794 47.0672C37.9152 46.897 38.0171 46.7183 38.0851 46.5311C38.17 46.3269 38.2464 46.1142 38.3143 45.8929C38.8238 46.0291 39.3588 46.0546 39.9193 45.9695C40.4954 45.8676 40.9786 45.7234 41.3688 45.5368C41.2057 45.78 41.0705 46.0094 40.963 46.2248C40.8951 46.3609 40.8356 46.5226 40.7847 46.7098C40.7167 46.897 40.7507 47.0672 40.8866 47.2203C40.9885 47.2884 41.1074 47.3139 41.2432 47.2969C41.3621 47.2799 41.481 47.2458 41.5999 47.1948C41.7018 47.1267 41.8037 47.0501 41.9056 46.965C42.0075 46.88 42.1009 46.8119 42.1858 46.7608C42.5934 46.4375 42.9246 46.1482 43.1794 45.8929C43.4341 45.6206 43.6464 45.3909 43.8162 45.2037C44.0031 45.0165 44.1559 44.8548 44.2748 44.7187C44.4107 44.5826 44.5465 44.4805 44.6824 44.4124C44.5975 45.1271 44.4701 45.8078 44.3003 46.4545C44.1474 47.0842 44.0031 47.7308 43.8672 48.3945C42.984 49.0412 42.033 49.7304 41.0139 50.4622C39.9779 51.1769 38.9759 51.9257 38.0078 52.7085C37.0228 53.4743 36.1142 54.2657 35.282 55.0825C34.4498 55.9164 33.7959 56.7588 33.3203 57.6096C33.1505 57.899 32.9977 58.2223 32.8618 58.5797C32.7259 58.937 32.658 59.3369 32.658 59.7794C32.658 60.2729 32.7769 60.7239 33.0146 61.1323C33.2524 61.5407 33.5666 61.8726 33.9572 62.1279C34.3479 62.3831 34.7894 62.5533 35.282 62.6384C35.7745 62.7235 36.284 62.6894 36.8105 62.5363C37.5578 62.3151 38.2371 61.9236 38.8485 61.3621C39.4599 60.8005 40.0119 60.1198 40.5044 59.3199C40.98 58.5371 41.4131 57.6777 41.8037 56.7417C42.1943 55.8058 42.5425 54.8528 42.8482 53.8828C43.1539 52.9128 43.4256 51.9598 43.6634 51.0238C43.9012 50.0878 44.122 49.2284 44.3258 48.4456C44.9372 47.9861 45.591 47.5436 46.2874 47.1182C46.9837 46.6757 47.6036 46.1992 48.1471 45.6887C48.215 45.6206 48.2914 45.5526 48.3764 45.4845C48.4051 45.4605 48.4284 45.4345 48.4463 45.4065C48.579 45.4034 48.7166 45.3954 48.8592 45.3824C49.046 45.3484 49.2074 45.3228 49.3432 45.3058C49.2923 45.5441 49.1904 45.8163 49.0375 46.1227C48.8847 46.412 48.7403 46.7098 48.6044 47.0161C48.4856 47.3224 48.4006 47.6117 48.3497 47.884C48.2987 48.1563 48.3412 48.3945 48.4771 48.5987C48.596 48.6838 48.7488 48.7179 48.9356 48.7009C49.3432 48.5477 49.7508 48.3265 50.1585 48.0372C50.5661 47.7479 50.9652 47.433 51.3558 47.0927C51.7634 46.7523 52.1625 46.412 52.5531 46.0716C52.7374 45.9111 52.9217 45.7619 53.1059 45.6241C53.072 45.6874 53.0389 45.7515 53.0065 45.8163C52.8367 46.1056 52.7773 46.429 52.8282 46.7864C52.9301 46.8885 53.015 46.9565 53.083 46.9906C53.2698 46.9906 53.4396 46.9395 53.5925 46.8374C53.7453 46.7353 53.8897 46.6162 54.0255 46.48C54.1784 46.3439 54.3143 46.2078 54.4332 46.0716C54.552 45.9355 54.6794 45.8163 54.8153 45.7142L55.07 45.4079C55.1719 45.2888 55.2654 45.2037 55.3503 45.1527C55.2823 45.476 55.2569 45.8334 55.2738 46.2248C55.2908 46.5992 55.4267 46.8459 55.6815 46.965C55.9022 46.9991 56.106 47.0076 56.2929 46.9906C56.4797 46.9565 56.658 46.9055 56.8279 46.8374C56.9977 46.7693 57.159 46.7013 57.3119 46.6332C57.4817 46.5481 57.6431 46.4715 57.7959 46.4035C57.9148 46.3184 58.0337 46.2418 58.1526 46.1737C58.2884 46.0886 58.4073 46.0035 58.5092 45.9185C58.5729 45.8866 58.629 45.8472 58.6777 45.8004C58.6635 45.8312 58.6492 45.862 58.635 45.8929C58.1255 46.948 57.6754 48.0372 57.2848 49.1603C56.8942 50.2835 56.5715 51.3982 56.3167 52.5043C56.062 53.6105 55.8752 54.6486 55.7563 55.6186C55.7563 55.6866 55.7478 55.7632 55.7308 55.8483C55.7138 55.9504 55.7138 56.044 55.7308 56.1291C55.7308 56.2142 55.7563 56.2823 55.8072 56.3333C55.8412 56.3844 55.9007 56.4099 55.9856 56.4099C56.0535 56.4099 56.1129 56.3588 56.1639 56.2567C56.2148 56.1546 56.2573 56.0355 56.2913 55.8994L56.3422 55.4909C56.3422 55.3548 56.3507 55.2442 56.3677 55.1591C56.6394 53.4743 57.047 51.9598 57.5905 50.6153C58.117 49.2539 58.8218 48.0457 59.705 46.9906L60.2145 46.429C60.4013 46.2418 60.5966 46.0716 60.8004 45.9185C60.9873 45.7653 61.1996 45.6121 61.4373 45.459C61.6751 45.3058 61.9638 45.2463 62.3035 45.2803C62.3714 45.5696 62.3375 45.8163 62.2016 46.0206C62.0657 46.2248 61.9553 46.4205 61.8704 46.6077C61.3269 46.948 60.7665 47.2969 60.189 47.6543C59.6286 48.0116 59.1106 48.4286 58.635 48.9051C58.5671 48.9731 58.4991 49.0497 58.4312 49.1348C58.3463 49.2199 58.2784 49.305 58.2274 49.3901C58.1595 49.4922 58.1 49.6198 58.0491 49.773C57.9812 49.9261 57.9812 50.0538 58.0491 50.1559C58.151 50.292 58.3123 50.326 58.5331 50.258C58.7539 50.1899 58.9832 50.0793 59.221 49.9261C59.4587 49.756 59.688 49.5688 59.9088 49.3645C60.1466 49.1603 60.3334 48.9987 60.4693 48.8795C61.1146 48.2669 61.7091 47.5522 62.2525 46.7353C62.6262 46.5141 63.0168 46.3099 63.4244 46.1227C63.832 45.9355 64.2736 45.7653 64.7491 45.6121C64.8001 45.5951 64.868 45.5781 64.9529 45.5611C65.0336 45.5476 65.1143 45.5288 65.1949 45.5047C64.9576 46.1807 64.7322 46.8717 64.5187 47.5777C64.4677 47.7308 64.4253 47.901 64.3913 48.0882C64.3403 48.2584 64.2979 48.4286 64.2639 48.5987C64.2469 48.6838 64.2299 48.7859 64.213 48.9051C64.179 49.0072 64.162 49.1093 64.162 49.2114C64.162 49.3135 64.179 49.3986 64.213 49.4667C64.2469 49.5347 64.3149 49.5688 64.4168 49.5688C64.5017 49.5688 64.5866 49.5177 64.6715 49.4156C64.7564 49.3135 64.8668 49.1603 65.0027 48.9561C65.1216 48.7519 65.2744 48.5051 65.4613 48.2158C65.6481 47.9095 65.8858 47.5522 66.1746 47.1437C66.3274 46.9395 66.4803 46.7438 66.6331 46.5566C66.786 46.3524 66.9388 46.1567 67.0917 45.9695C67.2785 45.7993 67.4483 45.6292 67.6012 45.459C67.7541 45.2718 67.9748 45.1356 68.2636 45.0505C68.3824 45.2037 68.4504 45.4334 68.4674 45.7398C68.4844 46.0291 68.4928 46.3269 68.4928 46.6332C68.5098 46.9225 68.5523 47.1863 68.6202 47.4245C68.6882 47.6628 68.824 47.8074 69.0278 47.8585C69.2146 47.8925 69.3845 47.85 69.5373 47.7308C69.7072 47.6117 69.8515 47.5011 69.9704 47.399C70.1063 47.2629 70.2337 47.1437 70.3526 47.0416L70.7092 46.7353C70.8541 46.6289 70.9934 46.5142 71.1273 46.3912C71.0278 46.5748 70.9283 46.7746 70.8288 46.9906C70.7269 47.2118 70.693 47.4671 70.7269 47.7564C70.8118 47.8755 70.9053 47.9521 71.0071 47.9861C71.2789 47.9521 71.5082 47.85 71.695 47.6798L72.2045 47.1693C72.4593 46.914 72.697 46.6502 72.9178 46.3779C73.1556 46.0886 73.3849 45.8078 73.6057 45.5356C73.8434 45.2463 74.0812 44.9655 74.319 44.6932C74.5567 44.4209 74.8115 44.1741 75.0832 43.9529C75.0493 44.6676 74.9474 45.3398 74.7775 45.9695C74.6247 46.5821 74.4803 47.2033 74.3444 47.8329C73.1386 48.4626 72.0347 49.0582 71.0326 49.6198C70.0306 50.1644 69.122 50.7175 68.3067 51.279C67.4746 51.8406 66.7358 52.4363 66.0904 53.0659C65.428 53.6785 64.8421 54.3678 64.3326 55.1336C63.9929 55.6781 63.6617 56.2993 63.339 56.997C62.9994 57.6947 62.838 58.4946 62.855 59.3965C62.855 59.873 62.9314 60.2985 63.0843 60.6728C63.2201 61.0643 63.407 61.3961 63.6447 61.6684C63.8825 61.8556 64.1373 62.0172 64.409 62.1534C64.6638 62.2895 64.9949 62.3576 65.4025 62.3576C66.0989 62.3406 66.7782 62.1023 67.4406 61.6429C68.103 61.2004 68.6804 60.7154 69.1729 60.1878C69.8862 59.422 70.5231 58.5712 71.0836 57.6352C71.644 56.6992 72.1451 55.7122 72.5866 54.6741C73.0452 53.636 73.4528 52.5554 73.8095 51.4322C74.1661 50.309 74.4973 49.1688 74.803 48.0116C75.5503 47.6032 76.3315 47.2288 77.1468 46.8885C77.979 46.5311 78.7602 46.1312 79.4905 45.6887C79.5754 45.6377 79.6773 45.5866 79.7962 45.5356C79.9321 45.4675 80 45.3654 80 45.2292C79.8981 45.1271 79.7877 45.1186 79.6688 45.2037C79.5669 45.2888 79.4735 45.3569 79.3886 45.4079C78.7772 45.7142 78.1403 46.0206 77.4779 46.3269C77.0533 46.5141 76.6203 46.7183 76.1787 46.9395C75.7541 47.1437 75.338 47.3394 74.9304 47.5266C75.0663 46.931 75.2021 46.3609 75.338 45.8163C75.4739 45.2548 75.5503 44.6251 75.5673 43.9274L75.4654 43.6721C75.4484 43.587 75.3974 43.5275 75.3125 43.4934C75.2955 43.4594 75.2616 43.4509 75.2106 43.4679C75.1597 43.4679 75.1087 43.4594 75.0578 43.4424C75.0408 43.4424 75.0323 43.4509 75.0323 43.4679H75.0068C74.7521 43.6211 74.4803 43.8593 74.1916 44.1826C73.9199 44.489 73.6311 44.8378 73.3254 45.2292C73.0197 45.6036 72.697 45.9865 72.3574 46.3779C72.0177 46.7523 71.661 47.0757 71.2874 47.3479C71.3723 47.1097 71.4657 46.897 71.5676 46.7098C71.6695 46.5056 71.7714 46.2928 71.8733 46.0716C71.9073 46.1907 71.9752 46.2248 72.0771 46.1737C72.1281 46.0886 72.1366 46.0206 72.1026 45.9695C72.0856 45.9185 72.0856 45.8504 72.1026 45.7653C72.1187 45.6525 72.1652 45.5397 72.2421 45.427C72.2795 45.4084 72.3205 45.3936 72.3651 45.3824C72.45 45.3654 72.501 45.3143 72.518 45.2292C72.5001 45.1577 72.4705 45.1119 72.4292 45.0921C72.4398 45.0695 72.4498 45.0471 72.4593 45.025C72.5272 44.9059 72.5527 44.8038 72.5357 44.7187C72.5357 44.6166 72.4508 44.54 72.2809 44.489C72.1111 44.523 72.0007 44.6166 71.9497 44.7697C71.8988 44.9229 71.8309 45.0591 71.7459 45.1782L71.5296 45.6118C71.1835 45.8859 70.9016 46.1242 70.6837 46.3269C70.446 46.5481 70.2422 46.7353 70.0723 46.8885C69.9025 47.0416 69.7411 47.1693 69.5883 47.2714C69.4524 47.3565 69.2996 47.433 69.1297 47.5011C69.0108 47.3479 68.9429 47.1182 68.9259 46.8119L68.875 45.8929C68.858 45.5696 68.8155 45.2888 68.7476 45.0505C68.6797 44.8123 68.5353 44.6762 68.3145 44.6421C68.1447 44.6251 67.9663 44.6762 67.7795 44.7953C67.6097 44.9144 67.4314 45.0676 67.2445 45.2548C67.0747 45.4249 66.9049 45.6121 66.735 45.8163C66.5822 46.0206 66.4378 46.1907 66.3019 46.3269C66.0472 46.6672 65.784 47.0331 65.5122 47.4245C65.2575 47.7989 65.0112 48.1563 64.7734 48.4966C64.9093 47.9691 65.0621 47.4671 65.232 46.9906C65.3848 46.4971 65.5462 46.0035 65.716 45.51C66.3954 45.0165 66.9898 44.4464 67.4993 43.7997C68.0088 43.1531 68.5098 42.4894 69.0023 41.8087C69.4949 41.128 69.9619 40.4302 70.4035 39.7155C70.8621 39.0007 71.2782 38.252 71.6518 37.4691C71.7197 37.2479 71.7962 36.9841 71.8811 36.6778C71.966 36.3715 71.9235 36.1077 71.7537 35.8865C71.6518 35.8014 71.5414 35.7674 71.4225 35.7844C71.3206 35.7844 71.2017 35.8014 71.0659 35.8354C70.7771 35.9375 70.5224 36.1077 70.3016 36.346C70.0808 36.5672 69.8685 36.7969 69.6647 37.0352C69.4439 37.2905 69.2316 37.5457 69.0278 37.801C68.841 38.0392 68.6797 38.2775 68.5438 38.5157C67.6776 39.8431 66.9134 41.2641 66.251 42.7787C65.9202 43.5549 65.6073 44.3535 65.3123 45.1744C65.2718 45.1842 65.237 45.1939 65.2077 45.2037C64.7152 45.3228 64.2396 45.4845 63.7811 45.6887C63.3225 45.8759 62.8979 46.0631 62.5073 46.2503C62.5922 46.1142 62.6517 45.9185 62.6856 45.6632C62.7366 45.4079 62.6941 45.2037 62.5582 45.0505C62.4394 44.9314 62.2525 44.8804 61.9978 44.8974C61.743 44.9314 61.4968 45.025 61.259 45.1782C61.0212 45.3313 60.8004 45.4845 60.5966 45.6377C60.3928 45.8078 60.1975 45.978 60.0107 46.1482C59.8409 46.3184 59.688 46.4971 59.5521 46.6842C59.2125 47.0586 58.9068 47.4586 58.635 47.884C58.3463 48.3094 58.0831 48.7519 57.8453 49.2114V49.1603C58.168 48.2414 58.5161 47.3479 58.8898 46.48C58.9747 46.3439 59.0426 46.1992 59.0936 46.0461C59.1445 45.8929 59.2125 45.7568 59.2974 45.6377C59.5861 45.1612 59.8748 44.7527 60.1636 44.4124C60.4693 44.055 60.6985 43.7487 60.8514 43.4934C60.9193 43.3573 60.9958 43.2382 61.0807 43.136C61.1656 43.0169 61.208 42.8553 61.208 42.651C61.1401 42.5319 61.0637 42.4724 60.9788 42.4724C60.8938 42.4724 60.8004 42.5064 60.6985 42.5745C60.6136 42.6255 60.5287 42.6936 60.4438 42.7787C60.3758 42.8638 60.3164 42.9318 60.2654 42.9829C59.7948 43.6701 59.3561 44.4213 58.9493 45.2366C58.9008 45.2586 58.839 45.3072 58.764 45.3824C58.6791 45.4505 58.5517 45.5441 58.3819 45.6632C58.229 45.7823 58.0252 45.9185 57.7705 46.0716C57.4987 46.2248 57.21 46.3779 56.9043 46.5311C56.5986 46.6672 56.2504 46.7183 55.8598 46.6842C55.6899 46.5821 55.605 46.3864 55.605 46.0971C55.605 45.978 55.6135 45.8504 55.6305 45.7142C55.6475 45.5781 55.656 45.4505 55.656 45.3313C55.673 45.2122 55.673 45.1016 55.656 44.9995C55.639 44.8974 55.5965 44.8123 55.5286 44.7442C55.4607 44.7272 55.4012 44.7357 55.3503 44.7697C55.3163 44.7868 55.2823 44.7953 55.2484 44.7953L55.3503 44.489C55.3842 44.3698 55.3842 44.2422 55.3503 44.1061C55.3163 44.072 55.2908 44.038 55.2738 44.004C55.2569 43.9699 55.2314 43.9359 55.1974 43.9018C55.0276 43.8338 54.8577 43.8338 54.6879 43.9018C54.4501 43.9869 54.2378 44.1316 54.051 44.3358C53.8642 44.523 53.6859 44.7272 53.516 44.9484C53.5052 44.9642 53.4944 44.9801 53.4837 44.996C53.4762 45.0071 53.4687 45.0183 53.4612 45.0295L53.4412 45.0598L53.4282 45.0694L53.4193 45.0761C53.3004 45.1612 53.173 45.2633 53.0372 45.3824C52.9013 45.5015 52.7909 45.5951 52.706 45.6632C52.2135 46.0035 51.7379 46.3694 51.2794 46.7608C50.8378 47.1522 50.3707 47.5181 49.8782 47.8585C49.7084 47.9776 49.5301 48.0882 49.3432 48.1903C49.1564 48.2924 48.9526 48.3435 48.7318 48.3435C48.6978 48.0372 48.7318 47.7479 48.8337 47.4756C48.9356 47.2033 49.0545 46.9395 49.1904 46.6842C49.3262 46.429 49.4451 46.1737 49.547 45.9185C49.6659 45.6462 49.7254 45.3654 49.7254 45.0761C49.6744 44.9229 49.547 44.8463 49.3432 44.8463C49.1394 44.8463 48.9526 44.8634 48.7828 44.8974C48.8507 44.7953 48.9271 44.6932 49.0121 44.5911C49.114 44.4719 49.1989 44.3528 49.2668 44.2337C49.3347 44.0976 49.3772 43.9614 49.3942 43.8253C49.4282 43.6891 49.4197 43.536 49.3687 43.3658C49.2498 43.2296 49.1224 43.1701 48.9866 43.1871C48.8507 43.1871 48.7148 43.2296 48.579 43.3147C48.3412 43.4509 48.1034 43.6806 47.8657 44.004C47.6279 44.3103 47.5345 44.6336 47.5854 44.974C47.6364 45.1271 47.7298 45.2377 47.8657 45.3058C47.9387 45.3333 48.0167 45.3558 48.0996 45.3734C48.068 45.4072 48.0329 45.4357 47.9942 45.459C47.8414 45.6121 47.6121 45.8078 47.3064 46.0461C47.0007 46.2673 46.6695 46.4971 46.3128 46.7353C45.9562 46.9736 45.608 47.2118 45.2683 47.4501C44.9287 47.6713 44.6484 47.8415 44.4277 47.9606C44.5465 47.5011 44.6569 47.0246 44.7588 46.5311C44.8607 46.0206 44.9542 45.51 45.0391 44.9995C45.073 44.8123 45.09 44.6336 45.09 44.4634C45.107 44.2933 45.0645 44.1401 44.9626 44.004C44.8438 43.9359 44.7334 43.9189 44.6315 43.9529C44.4956 44.004 44.3682 44.089 44.2493 44.2082C44.1304 44.3103 44.0116 44.4294 43.8927 44.5655C43.7908 44.6847 43.6804 44.8038 43.5615 44.9229C43.4596 45.025 43.3577 45.1101 43.2558 45.1782C43.3407 44.9229 43.3407 44.7017 43.2558 44.5145C43.1709 44.3273 43.035 44.2252 42.8482 44.2082C42.6614 44.2082 42.5 44.2677 42.3641 44.3869C42.2453 44.489 42.1349 44.5911 42.033 44.6932C41.8988 44.8276 41.7754 44.9675 41.6628 45.1128C41.6112 45.1292 41.565 45.151 41.5243 45.1782C41.0997 45.3484 40.5986 45.5015 40.0212 45.6377ZM57.8198 49.2369C57.8368 49.2539 57.8453 49.2454 57.8453 49.2114C57.8113 49.2114 57.8028 49.2199 57.8198 49.2369ZM37.601 46.6077C37.3972 46.948 37.1594 47.1522 36.8877 47.2203C36.9217 46.88 37.0066 46.5907 37.1425 46.3524C37.2614 46.1142 37.3887 45.8759 37.5246 45.6377C37.5246 45.7738 37.584 45.8419 37.7029 45.8419C37.7709 45.8419 37.8133 45.8163 37.8303 45.7653C37.8473 45.6972 37.8728 45.6632 37.9067 45.6632C37.9237 45.9525 37.8218 46.2673 37.601 46.6077ZM41.7527 46.48C41.6169 46.5821 41.4725 46.6757 41.3196 46.7608C41.6084 45.927 42.0924 45.2463 42.7717 44.7187V44.7442C42.7887 44.7442 42.7972 44.7527 42.7972 44.7697C42.7972 44.9399 42.7717 45.0846 42.7208 45.2037C42.6698 45.3228 42.6104 45.4334 42.5425 45.5356C42.4915 45.6377 42.4321 45.7398 42.3641 45.8419C42.2962 45.944 42.2368 46.0546 42.1858 46.1737C42.0499 46.2758 41.9056 46.3779 41.7527 46.48ZM41.1923 50.7175C42.1094 50.0538 42.9331 49.4581 43.6634 48.9306L43.7143 48.9051C43.6974 48.8881 43.6974 48.8795 43.7143 48.8795C43.7313 48.8795 43.7398 48.8881 43.7398 48.9051C43.519 49.79 43.2643 50.7515 42.9756 51.7896C42.7038 52.8277 42.3811 53.8572 42.0075 54.8783C41.6338 55.9164 41.2262 56.9034 40.7847 57.8394C40.3261 58.7754 39.8251 59.5837 39.2816 60.2644C38.891 60.7579 38.4409 61.1919 37.9314 61.5663C37.4219 61.9577 36.802 62.2044 36.0717 62.3065C35.3244 62.3576 34.713 62.2215 34.2375 61.8981C33.7619 61.5918 33.4222 61.1834 33.2184 60.6728C33.0826 60.3665 33.0231 60.0517 33.0401 59.7284C33.0571 59.405 33.1165 59.0987 33.2184 58.8094C33.3034 58.5201 33.4222 58.2393 33.5751 57.967C33.711 57.7118 33.8468 57.482 33.9827 57.2778C34.4752 56.546 35.1206 55.7973 35.9188 55.0315C36.7171 54.2657 37.5663 53.5169 38.4664 52.7851C39.3665 52.0534 40.2752 51.3641 41.1923 50.7175ZM48.3497 44.8974C48.2308 44.8974 48.1459 44.8634 48.0949 44.7953C48.1459 44.506 48.2563 44.2762 48.4261 44.1061C48.6129 43.9359 48.8082 43.7742 49.0121 43.6211H49.063C49.063 43.9104 48.9781 44.1486 48.8082 44.3358L48.3497 44.8974ZM53.8217 46.1227C53.6859 46.2418 53.5245 46.3439 53.3377 46.429C53.4736 45.9865 53.6689 45.6121 53.9236 45.3058C54.1784 44.9825 54.4586 44.6847 54.7643 44.4124C54.7304 44.6506 54.6455 44.8548 54.5096 45.025C54.3907 45.1952 54.2803 45.3739 54.1784 45.5611C54.1784 45.6121 54.1954 45.6717 54.2294 45.7398C54.0935 45.8759 53.9576 46.0035 53.8217 46.1227ZM59.6795 48.4201C60.206 47.9946 60.775 47.5947 61.3864 47.2203C61.4203 47.2203 61.4373 47.2118 61.4373 47.1948L61.4628 47.2203C61.242 47.5096 61.0127 47.7819 60.775 48.0372L60.0616 48.7519C59.8239 48.9902 59.5606 49.2284 59.2719 49.4667C59.0002 49.6879 58.6775 49.8495 58.3038 49.9517C58.4397 49.6113 58.635 49.322 58.8898 49.0838C59.1445 48.8455 59.4078 48.6243 59.6795 48.4201ZM71.499 36.7289C71.482 36.814 71.465 36.882 71.448 36.9331C71.414 37.0862 71.3716 37.2139 71.3206 37.316L71.1932 37.5712C71.1083 37.7925 71.0149 38.0052 70.913 38.2094L70.6073 38.771C69.928 39.9282 69.2146 41.0344 68.4674 42.0895C67.7201 43.1446 66.8709 44.1061 65.9198 44.974C66.2595 44.1231 66.6077 43.2977 66.9643 42.4979C67.321 41.698 67.7031 40.9152 68.1107 40.1494C68.2805 39.8771 68.4844 39.5453 68.7221 39.1539C68.9769 38.7625 69.2401 38.3711 69.5119 37.9797C69.8006 37.5883 70.0978 37.2309 70.4035 36.9076C70.7262 36.5842 71.0319 36.3545 71.3206 36.2183C71.4055 36.1843 71.4565 36.1928 71.4735 36.2439C71.5074 36.2949 71.5244 36.363 71.5244 36.4481C71.5244 36.5332 71.5159 36.6268 71.499 36.7289ZM64.358 55.8228C64.5958 55.4314 64.8591 55.057 65.1478 54.6996C66.0479 53.5084 67.2708 52.4192 68.8163 51.4322C70.3448 50.4282 72.1366 49.3986 74.1916 48.3435C74.1746 48.3265 74.1746 48.318 74.1916 48.318C74.2086 48.318 74.2171 48.3265 74.2171 48.3435C73.9453 49.3816 73.6311 50.4792 73.2745 51.6364C72.9178 52.7766 72.5017 53.8998 72.0262 55.0059C71.5336 56.1291 70.9732 57.1842 70.3448 58.1712C69.6994 59.1583 68.9606 60.0006 68.1284 60.6984C67.7378 61.0047 67.3557 61.277 66.982 61.5152C66.6084 61.7705 66.1328 61.9236 65.5554 61.9747C65.0289 62.0258 64.5873 61.9236 64.2307 61.6684C63.874 61.4301 63.6193 61.0813 63.4664 60.6218C63.2966 60.1793 63.2371 59.6518 63.2881 59.0391C63.322 58.4435 63.4664 57.8054 63.7212 57.1246C63.908 56.6481 64.1203 56.2142 64.358 55.8228Z" fill="#8E5834"/>
<path d="M52.0866 25.8078C51.0476 25.8493 50.1333 26.2234 49.4684 26.9299C48.7619 27.6364 48.2216 28.6753 48.1385 29.7143V29.6727C48.097 28.6338 47.5567 27.5948 46.8502 26.8883C46.1437 26.2234 45.271 25.8493 44.1905 25.8078H44.1074C44.0658 25.7662 44.0242 25.7662 43.9827 25.7662H44.1905C45.271 25.7247 46.1437 25.3506 46.8502 24.6857C47.5567 23.9377 48.097 22.8987 48.1385 21.8182V21.8597C48.1801 22.8987 48.7619 23.9792 49.4684 24.6857C50.1333 25.3922 51.0476 25.7662 52.0866 25.8078Z" fill="#8E5834"/>
</svg>
