<svg width="360" height="117" viewBox="0 0 360 117" fill="none" xmlns="http://www.w3.org/2000/svg">
<path d="M142.731 8.19394C143.796 7.06145 145.262 6.46189 146.927 6.39527C145.262 6.32866 143.796 5.7291 142.731 4.5966C141.598 3.46411 140.665 1.73205 140.599 0.0666166V0C140.532 1.73205 139.666 3.39749 138.534 4.5966C137.401 5.66248 136.002 6.26204 134.27 6.32866H133.937C134.004 6.32866 134.07 6.32866 134.137 6.39527H134.27C136.002 6.46189 137.401 7.06145 138.534 8.12733C139.666 9.25982 140.532 10.9253 140.599 12.5907V12.6573C140.732 10.9919 141.598 9.32644 142.731 8.19394Z" fill="black"/>
<path fill-rule="evenodd" clip-rule="evenodd" d="M10.1954 10.3204L10.4934 9.99928C11.1491 9.30913 11.8645 8.61481 12.6322 7.9282L14.1438 10.3983L34.9495 43.2914V9.24435H35.8069V44.6533H31.6709L11.8241 13.002L11.7591 12.8923C11.8309 17.5702 15.9288 25.3321 18.5283 30.2561L18.5292 30.2576C18.9694 31.0915 19.367 31.8447 19.6944 32.4869C23.9985 40.9384 30.8693 54.9591 21.5587 62.4394C8.25596 72.7225 -5.37626 49.8542 2.14789 39.6465C-1.16919 28.6098 1.62142 20.0661 8.58013 12.105C9.03447 11.5863 9.58814 10.965 10.1648 10.3529L10.1954 10.3204ZM16.7362 35.5145C20.4 42.5194 27.4615 56.0204 20.6698 61.477C11.2613 69.2673 0.15937 51.4193 3.01154 42.0168C4.05838 44.4711 5.57637 46.7203 7.59315 48.5109C15.1228 54.4288 19.229 45.5797 14.7464 39.3528C11.4921 34.7986 6.90995 34.78 3.14487 38.4409C0.504651 27.9588 3.03671 20.3166 9.61645 12.8912C8.3346 19.0452 12.7479 27.7127 15.5635 33.2423L15.5644 33.2442C15.7028 33.516 15.8373 33.7802 15.9671 34.0361C16.1988 34.4871 16.4577 34.982 16.7362 35.5145ZM8.49223 47.6151C6.27095 45.6419 4.68899 43.0972 3.71183 40.2979C6.08925 36.1331 10.7555 35.9685 13.678 40.0378C17.1581 44.8731 14.9993 52.6201 8.49223 47.6151Z" fill="black"/>
<path d="M48.3837 45.1514C43.8722 45.1514 40.1718 42.1607 40.1718 36.2299C40.1718 24.4191 58.6738 22.6449 63.4387 22.6449C63.4387 18.4883 60.4987 15.4468 56.6462 15.4468C52.9965 15.4468 48.4851 18.0827 44.734 25.0273L42.6557 20.9721C44.886 16.6127 50.0058 14.6358 54.9734 14.6358C61.2591 14.6358 67.3419 17.7786 67.3419 23.2532C54.5172 23.2532 44.2271 28.0181 44.2271 37.2437C44.2271 41.4003 46.7616 43.4787 50.0058 43.4787C55.4297 43.4787 62.8812 37.5479 63.5908 25.5342H67.3419V44.6952H63.2867V31.6678C60.7521 40.64 53.9596 45.1514 48.3837 45.1514Z" fill="black"/>
<path d="M73.5816 36.1285C73.5816 42.2621 77.5354 45.6077 82.0976 45.6077C85.8487 45.6077 90.056 43.3773 92.844 38.6124L91.3232 32.3775L90.7656 32.5295C90.1574 40.7414 85.6966 44.7966 82.1483 44.7966C79.6644 44.7966 77.6368 42.8197 77.6368 38.9165V16.2579C84.4293 16.2579 87.9777 17.3731 90.3094 20.1611H90.8163L88.6366 15.3962H77.6368L77.5861 4.0415H76.8765C76.8765 11.5944 75.153 15.3962 70.5402 15.3962V16.0551C72.9733 16.2072 73.5816 16.6634 73.5816 18.4883V36.1285Z" fill="black"/>
<path d="M106.531 13.4699H106.024L111.6 3.78804H116.669L106.531 13.4699Z" fill="black"/>
<path d="M94.872 36.2299C94.872 42.1607 98.5724 45.1514 103.084 45.1514C108.66 45.1514 115.452 40.64 117.987 31.6678V44.6952H122.042V25.5342H118.291C117.581 37.5479 110.13 43.4787 104.706 43.4787C101.462 43.4787 98.9272 41.4003 98.9272 37.2437C98.9272 28.0181 109.217 23.2532 122.042 23.2532C122.042 17.7786 115.959 14.6358 109.674 14.6358C104.706 14.6358 99.5862 16.6127 97.3558 20.9721L99.4341 25.0273C103.185 18.0827 107.697 15.4468 111.346 15.4468C115.199 15.4468 118.139 18.4883 118.139 22.6449C113.374 22.6449 94.872 24.4191 94.872 36.2299Z" fill="black"/>
<path d="M132.072 44.6952H128.016V9.11054L132.072 6.57602V44.6952Z" fill="black"/>
<path d="M138.717 15.3962V44.6952H142.772V15.3962H138.717Z" fill="black"/>
<path fill-rule="evenodd" clip-rule="evenodd" d="M163.654 45.3542C155.239 45.3542 147.636 39.17 147.636 29.2853C147.636 20.009 154.327 14.5851 163.502 14.5851C170.091 14.5851 175.211 17.6265 175.211 24.5711C174.045 24.2163 172.879 24.0642 171.815 24.0642C169.698 24.0642 167.736 24.603 165.785 25.1385C163.858 25.6674 161.943 26.1932 159.903 26.1932C157.672 26.1932 155.29 25.5849 152.654 23.6587C151.995 25.4836 151.64 27.4605 151.64 29.4881C151.64 39.2714 156.861 44.5938 162.741 44.5938C167.253 44.5938 172.119 41.5524 175.465 35.1147H175.972L174.451 41.7552C171.055 44.239 167.253 45.3542 163.654 45.3542ZM159.852 25.1287C162.084 25.1287 164.202 24.5438 166.191 23.9945C167.95 23.5085 169.609 23.0504 171.156 23.0504C171.156 20.1104 169.28 15.4975 163.35 15.4975C158.433 15.4975 154.834 18.539 153.009 22.7463C155.391 24.4191 157.723 25.1287 159.852 25.1287Z" fill="black"/>
<path fill-rule="evenodd" clip-rule="evenodd" d="M195.186 44.6952H199.242V24.8753L216.628 44.6952H221.14L206.541 28.5757C207.707 28.8798 208.822 28.9812 209.887 28.9812C215.767 28.9812 220.177 24.8246 220.177 18.9445C220.177 13.2672 216.274 9.11054 210.191 9.11054H195.186V44.6952ZM216.476 19.0966C216.476 24.3177 213.334 27.7646 208.721 27.7646C205.933 27.7646 202.689 26.548 199.242 23.8108V9.97228H207.91C213.08 9.97228 216.476 13.8754 216.476 19.0966Z" fill="black"/>
<path d="M220.398 53.7688L218.167 47.8887L218.624 47.6353C222.273 50.9302 225.923 52.2481 229.015 52.2481C234.338 52.2481 237.785 48.2436 235.909 44.1376L222.932 15.3962H226.988L239.356 42.3635L244.678 26.3453C246.807 19.9583 244.729 15.9031 240.573 15.9031V15.3962H249.291L238.95 45.5063C236.01 54.0223 227.393 54.2757 220.398 53.7688Z" fill="black"/>
<path d="M252.768 3.23045L260.32 12.4561H260.827L268.887 3.23045H264.325L260.574 11.8478L257.33 3.23045H252.768Z" fill="black"/>
<path d="M262.906 45.557C258.293 45.557 253.274 43.9856 250.081 40.3865L251.602 31.2116H252.109C252.109 41.1976 258.496 45.0501 263.869 45.0501C267.671 45.0501 270.965 43.0731 270.965 39.981C270.965 36.1629 265.981 33.812 260.99 31.4575C255.776 28.9982 250.553 26.535 250.993 22.3914C251.602 16.8662 256.417 14.6358 262.145 14.6358C265.085 14.6358 268.228 15.1934 271.168 16.2072L272.79 24.1656H272.283C270.408 18.4883 264.578 15.3455 260.067 15.3455C256.874 15.3455 254.339 16.9169 254.339 20.2117C254.339 23.7247 258.901 25.9987 263.665 28.3729C268.868 30.9663 274.311 33.6794 274.311 38.2575C274.311 42.8704 268.938 45.557 262.906 45.557Z" fill="black"/>
<path d="M277.486 36.2299C277.486 42.1607 281.187 45.1514 285.698 45.1514C291.274 45.1514 298.067 40.64 300.601 31.6678V44.6952H304.656V25.5342H300.905C300.196 37.5479 292.744 43.4787 287.32 43.4787C284.076 43.4787 281.542 41.4003 281.542 37.2437C281.542 28.0181 291.832 23.2532 304.656 23.2532C304.656 17.7786 298.573 14.6358 292.288 14.6358C287.32 14.6358 282.201 16.6127 279.97 20.9721L282.048 25.0273C285.8 18.0827 290.311 15.4468 293.961 15.4468C297.813 15.4468 300.753 18.4883 300.753 22.6449C295.988 22.6449 277.486 24.4191 277.486 36.2299Z" fill="black"/>
<path d="M321.338 44.6952H317.79L306.537 15.3962H310.592L321.237 42.769L331.78 15.3962H332.642L321.338 44.6952Z" fill="black"/>
<path d="M343.982 13.4699H344.489L354.627 3.78804H349.558L343.982 13.4699Z" fill="black"/>
<path d="M341.042 45.1514C336.53 45.1514 332.83 42.1607 332.83 36.2299C332.83 24.4191 351.332 22.6449 356.097 22.6449C356.097 18.4883 353.157 15.4468 349.304 15.4468C345.655 15.4468 341.143 18.0827 337.392 25.0273L335.314 20.9721C337.544 16.6127 342.664 14.6358 347.632 14.6358C353.917 14.6358 360 17.7786 360 23.2532C347.175 23.2532 336.885 28.0181 336.885 37.2437C336.885 41.4003 339.42 43.4787 342.664 43.4787C348.088 43.4787 355.539 37.5479 356.249 25.5342H360V44.6952H355.945V31.6678C353.41 40.64 346.618 45.1514 341.042 45.1514Z" fill="black"/>
<path fill-rule="evenodd" clip-rule="evenodd" d="M60.062 76.2991C60.1292 76.2766 60.2093 76.2542 60.3023 76.2317C60.9805 74.3448 61.6998 72.5093 62.46 70.7251C63.9824 67.2438 65.7391 63.9777 67.73 60.9267C68.0423 60.3791 68.4131 59.8315 68.8426 59.2839C69.311 58.6971 69.799 58.1104 70.3064 57.5237C70.7749 56.976 71.2629 56.448 71.7703 55.9395C72.2778 55.3919 72.8634 55.0007 73.527 54.766C73.8393 54.6878 74.1126 54.6487 74.3468 54.6487C74.62 54.6096 74.8738 54.6878 75.108 54.8834C75.4984 55.3919 75.596 55.9982 75.4008 56.7022C75.2056 57.4063 75.0299 58.0126 74.8738 58.5211C74.015 60.3204 73.0586 62.0415 72.0046 63.6843C70.9896 65.3272 69.9161 66.9309 68.784 68.4955C67.6519 70.0602 66.5003 71.5857 65.3292 73.072C64.1581 74.5584 62.7918 75.8688 61.2303 77.0032C60.84 78.1375 60.4691 79.2718 60.1178 80.4062C59.7274 81.5014 59.3761 82.6553 59.0638 83.8679C59.6103 83.0856 60.1763 82.2642 60.7619 81.4036C61.3865 80.504 61.9916 79.663 62.5771 78.8807C62.8894 78.5678 63.2212 78.1766 63.5726 77.7072C63.9629 77.2378 64.3533 76.8076 64.7437 76.4164C65.1731 75.9861 65.583 75.6341 65.9733 75.3603C66.4027 75.0865 66.8126 74.9691 67.203 75.0083C67.7105 75.0865 68.0423 75.3994 68.1984 75.947C68.3546 76.4947 68.4522 77.1401 68.4912 77.8832L68.6083 79.9955C68.6474 80.6996 68.8035 81.2276 69.0768 81.5797C69.4671 81.4232 69.8185 81.2472 70.1308 81.0516C70.4821 80.8169 70.853 80.5235 71.2433 80.1715C71.6337 79.8195 72.1021 79.3892 72.6487 78.8807C73.174 78.3919 73.8615 77.8128 74.7114 77.1434C74.6492 76.7757 74.7559 76.416 75.0316 76.0644C75.422 75.5168 75.949 75.243 76.6126 75.243C76.8859 75.0083 77.1201 74.7345 77.3153 74.4215C77.5495 74.1086 77.9399 73.9717 78.4864 74.0108C78.7206 74.1282 78.8572 74.2846 78.8963 74.4802C78.9744 74.6758 78.9548 74.8909 78.8377 75.1256C78.7597 75.3212 78.6425 75.5168 78.4864 75.7123C78.3302 75.8688 78.1741 75.9666 78.018 76.0057C78.096 76.2013 78.1546 76.3969 78.1936 76.5924C78.2717 76.788 78.3107 77.0423 78.3107 77.3552C80.0674 76.8467 81.6289 76.1817 82.9952 75.3603C84.4005 74.5389 85.7863 73.6783 87.1526 72.7787C88.4408 71.8008 89.69 70.8229 90.9002 69.845C92.1103 68.828 93.2814 67.7523 94.4135 66.618C94.96 65.5619 95.487 64.5253 95.9945 63.5083C96.541 62.4522 97.1266 61.4156 97.7512 60.3986C94.8234 60.4769 91.9737 60.6529 89.2021 60.9267C86.4304 61.2005 83.6198 61.4352 80.7701 61.6308C80.4187 61.6699 80.0479 61.6699 79.6575 61.6308C79.3062 61.5526 79.111 61.2983 79.072 60.868C79.111 60.5551 79.2281 60.34 79.4233 60.2226C79.6185 60.1053 79.8722 60.0466 80.1845 60.0466C80.4578 60.0857 80.653 60.1835 80.7701 60.34C80.8872 60.4573 81.0433 60.5551 81.2385 60.6333C84.1663 60.5551 86.977 60.3986 89.6705 60.164C92.3641 59.9293 95.1747 59.7728 98.1025 59.6946C98.7271 58.7558 99.4298 57.7192 100.211 56.5849C101.03 55.4114 101.889 54.3749 102.787 53.4752L103.373 52.8885C103.646 52.6538 103.919 52.4582 104.192 52.3018C104.466 52.1062 104.739 52.0084 105.012 52.0084C105.285 51.9693 105.539 52.0671 105.773 52.3018C105.812 52.732 105.773 53.1232 105.656 53.4752C105.539 53.8273 105.402 54.1597 105.246 54.4727C105.09 54.7856 104.914 55.0789 104.719 55.3528C104.524 55.6266 104.348 55.9199 104.192 56.2328L101.85 59.5185C103.138 59.4403 104.427 59.4012 105.715 59.4012C107.042 59.3621 108.389 59.3034 109.755 59.2252C110.653 59.1469 111.629 59.1078 112.683 59.1078C113.737 59.0687 114.635 59.2056 115.376 59.5185C115.454 59.5968 115.552 59.6555 115.669 59.6946C115.786 59.6946 115.884 59.7924 115.962 59.9879C116.118 60.3009 116.06 60.4964 115.786 60.5747C115.591 60.6529 115.454 60.6529 115.376 60.5747C115.298 60.4573 115.181 60.3595 115.025 60.2813C114.596 60.0857 114.069 59.9879 113.444 59.9879H111.746C110.028 59.9488 108.272 59.9488 106.476 59.9879C104.68 60.027 102.963 60.0857 101.323 60.164L99.3322 62.5109C98.6686 63.2541 97.9659 64.0168 97.2242 64.7991L96.463 65.5619C96.1897 65.7966 95.975 66.0313 95.8189 66.266C95.6237 66.5789 95.4675 66.9114 95.3504 67.2634C95.2333 67.5763 95.0771 67.9088 94.882 68.2608C91.5248 75.5363 88.7531 83.3594 86.5671 91.7301C86.1767 93.2556 85.7863 94.8202 85.396 96.424C85.0446 98.0277 84.8494 99.7097 84.8104 101.47C84.9275 101.626 85.0446 101.705 85.1617 101.705C85.3179 101.705 85.396 101.802 85.396 101.998C85.435 102.193 85.3764 102.33 85.2203 102.409C85.1032 102.526 84.947 102.604 84.7518 102.643C84.2834 102.565 84.0101 102.311 83.9321 101.881C83.854 101.489 83.8149 101.098 83.8149 100.707C83.8149 99.4163 83.9516 98.1646 84.2248 96.952C84.4981 95.7394 84.7518 94.6051 84.9861 93.549C86.001 88.9725 87.2307 84.6111 88.6751 80.4649C90.1585 76.3186 91.7785 72.3484 93.5352 68.5542L90.139 71.3705C89.0069 72.3093 87.8163 73.2089 86.5671 74.0695C85.3569 74.8909 84.0687 75.6732 82.7024 76.4164C81.3361 77.1205 79.8722 77.7268 78.3107 78.2353C78.0765 79.1741 77.7057 80.0933 77.1982 80.9929C76.7297 81.8535 76.1051 82.4989 75.3244 82.9291C75.1292 83.0856 74.8169 83.1638 74.3875 83.1638C74.3485 83.1247 74.2899 83.1052 74.2118 83.1052C73.9776 83.0269 73.7629 82.8118 73.5677 82.4598C73.4896 81.4427 73.6263 80.5822 73.9776 79.8781C74.3289 79.1741 74.6608 78.47 74.9731 77.7659C74.9658 77.7549 74.9586 77.7439 74.9516 77.733C74.739 77.9257 74.5374 78.1323 74.3468 78.3526C73.8393 78.9002 73.2928 79.3892 72.7072 79.8195L71.8875 80.5235C71.6142 80.7582 71.3214 81.032 71.0091 81.345C70.7359 81.5797 70.404 81.8339 70.0137 82.1077C69.6623 82.3815 69.272 82.4793 68.8426 82.4011C68.3741 82.2837 68.0618 81.9512 67.9057 81.4036C67.7495 80.856 67.6519 80.2497 67.6129 79.5848C67.6129 78.8807 67.5934 78.1962 67.5543 77.5312C67.5153 76.8271 67.3591 76.2991 67.0859 75.947C66.4223 76.1426 65.9148 76.4555 65.5634 76.8858C65.2121 77.277 64.8217 77.6681 64.3923 78.0593C64.041 78.4895 63.6897 78.9394 63.3383 79.4087C62.987 79.839 62.6357 80.2888 62.2843 80.7582C61.6207 81.697 61.0742 82.5184 60.6448 83.2225C60.2154 83.8875 59.864 84.4546 59.5908 84.924C59.2785 85.3934 59.0247 85.7454 58.8296 85.9801C58.6344 86.2148 58.4392 86.3322 58.244 86.3322C58.0098 86.3322 57.8536 86.254 57.7756 86.0975C57.6975 85.941 57.6584 85.7454 57.6584 85.5108C57.6584 85.2761 57.6975 85.0414 57.7756 84.8067C57.8146 84.5329 57.8536 84.2982 57.8927 84.1026C57.9707 83.7114 58.0683 83.3203 58.1854 82.9291C58.2635 82.4989 58.3611 82.1077 58.4782 81.7557C58.9689 80.1331 59.4871 78.5448 60.0326 76.9908C59.8472 77.0463 59.6618 77.0895 59.4764 77.1205C59.2812 77.1596 59.1251 77.1987 59.008 77.2378C57.9149 77.5899 56.9 77.981 55.9631 78.4113C55.0262 78.8416 54.1283 79.311 53.2695 79.8195C52.0203 81.697 50.654 83.3399 49.1706 84.748C48.8583 85.0218 48.4289 85.3934 47.8824 85.8628C47.3749 86.3322 46.8479 86.7625 46.3014 87.1536C45.7549 87.5056 45.2279 87.7599 44.7204 87.9164C44.2129 88.0728 43.8421 87.9946 43.6078 87.6817C43.4517 87.447 43.4517 87.1536 43.6078 86.8016C43.7249 86.4495 43.8616 86.1562 44.0177 85.9215C44.1348 85.7259 44.291 85.5303 44.4862 85.3347C44.6423 85.1392 44.7985 84.9631 44.9546 84.8067C46.0477 83.7114 47.2383 82.7531 48.5265 81.9317C49.8538 81.1103 51.142 80.3084 52.3912 79.5261C52.5864 79.0958 52.8401 78.646 53.1524 78.1766C53.4647 77.7072 53.5428 77.1401 53.3866 76.4751C52.6059 76.3969 51.9423 76.5338 51.3957 76.8858C50.8492 77.2378 50.3613 77.5899 49.9318 77.9419C49.4634 78.294 49.0145 78.6851 48.5851 79.1154L47.414 80.4062C45.384 82.8314 43.764 85.6085 42.5538 88.7378C41.3046 91.8279 40.3678 95.3092 39.7432 99.1816C39.7041 99.3772 39.6846 99.6314 39.6846 99.9444L39.5675 100.883C39.4894 101.196 39.3918 101.47 39.2747 101.705C39.1576 101.939 39.021 102.057 38.8648 102.057C38.6696 102.057 38.533 101.998 38.4549 101.881C38.3378 101.763 38.2793 101.607 38.2793 101.411C38.2402 101.216 38.2402 101 38.2793 100.766C38.3183 100.57 38.3378 100.394 38.3378 100.238C38.6111 98.0081 39.0405 95.6221 39.6261 93.0796C40.2116 90.5371 40.9533 87.975 41.8512 85.3934C42.749 82.8118 43.7835 80.3084 44.9546 77.8832C46.0867 75.419 47.3359 73.1894 48.7022 71.1945C48.8193 71.0772 48.9559 70.9207 49.1121 70.7251C49.3073 70.5295 49.5024 70.3731 49.6976 70.2557C49.9318 70.0993 50.1465 70.021 50.3417 70.021C50.5369 70.021 50.7126 70.1579 50.8687 70.4318C50.8687 70.9011 50.7711 71.2727 50.576 71.5465C50.3808 71.7812 50.2051 72.055 50.049 72.368C49.6976 72.9547 49.1706 73.6588 48.468 74.4802C47.8043 75.2625 47.1407 76.2013 46.4771 77.2965C46.2819 77.5703 46.1257 77.8832 46.0086 78.2353C45.8915 78.5873 45.7354 78.9198 45.5402 79.2327C44.6814 81.2276 43.8811 83.2812 43.1394 85.3934V85.5108C43.0613 85.5108 43.0418 85.5303 43.0808 85.5694C43.1199 85.6085 43.1394 85.589 43.1394 85.5108C43.6859 84.4546 44.291 83.4376 44.9546 82.4598C45.5792 81.4819 46.2819 80.5627 47.0626 79.7021C47.3749 79.2718 47.7262 78.8611 48.1166 78.47C48.546 78.0788 48.995 77.6877 49.4634 77.2965C49.9318 76.9445 50.4393 76.5924 50.9858 76.2404C51.5324 75.8884 52.0984 75.6732 52.684 75.595C53.2695 75.5559 53.6989 75.6732 53.9722 75.947C54.2845 76.2991 54.3821 76.7685 54.265 77.3552C54.1869 77.9419 54.0503 78.3917 53.8551 78.7047C54.7529 78.2744 55.7289 77.8441 56.7829 77.4139C57.8368 76.9445 58.9299 76.5729 60.062 76.2991ZM51.2786 80.9342C49.8733 81.7948 48.5655 82.714 47.3554 83.6919C46.7308 84.1613 46.1257 84.6698 45.5402 85.2174C44.9546 85.765 44.5057 86.43 44.1934 87.2123C45.0522 86.9776 45.7939 86.606 46.4185 86.0975C47.0821 85.5499 47.6872 85.0023 48.2337 84.4546L49.8733 82.8118C50.4198 82.2251 50.9468 81.5992 51.4543 80.9342L51.3957 80.8756C51.3957 80.9147 51.3567 80.9342 51.2786 80.9342ZM74.4053 57.289C74.4444 57.1716 74.4834 57.0152 74.5225 56.8196C74.5615 56.5849 74.581 56.3698 74.581 56.1742C74.581 55.9786 74.542 55.8221 74.4639 55.7048C74.4249 55.5874 74.3077 55.5679 74.1126 55.6461C73.4489 55.959 72.7463 56.4871 72.0046 57.2303C71.3019 57.9735 70.6187 58.7949 69.9551 59.6946C69.3305 60.5942 68.7254 61.4939 68.1399 62.3935C67.5934 63.2932 67.1249 64.0559 66.7346 64.6818C65.7977 66.442 64.9193 68.2413 64.0995 70.0797C63.2798 71.9181 62.4795 73.8152 61.6988 75.771C63.8849 73.7761 65.8367 71.5661 67.5543 69.1409C69.272 66.7158 70.9115 64.1733 72.473 61.5134L73.1757 60.2226C73.4099 59.7532 73.6246 59.2643 73.8198 58.7558L74.1126 58.1691C74.2297 57.9344 74.3273 57.641 74.4053 57.289ZM100.796 59.5185L103.138 56.4675C103.919 55.4505 104.524 54.2575 104.954 52.8885C104.954 52.8494 104.934 52.8298 104.895 52.8298C103.763 53.7295 102.767 54.766 101.909 55.9395C101.05 57.1129 100.23 58.3255 99.4493 59.5772C99.7226 59.6163 99.9568 59.6163 100.152 59.5772C100.347 59.5381 100.562 59.5185 100.796 59.5185ZM96.99 63.9777C97.4584 63.5474 97.8878 63.0976 98.2782 62.6282C98.7076 62.1197 99.137 61.6503 99.5664 61.2201C99.6055 61.1027 99.6445 61.0049 99.6835 60.9267L99.9177 60.692C99.9568 60.6138 100.015 60.5355 100.093 60.4573C100.211 60.3791 100.23 60.3204 100.152 60.2813C99.9568 60.2422 99.7616 60.2422 99.5664 60.2813C99.3712 60.3204 99.176 60.3204 98.9809 60.2813C98.6686 60.9071 98.3367 61.5134 97.9854 62.1002C97.6341 62.6869 97.3023 63.3127 96.99 63.9777ZM76.6712 77.5899C77.0225 77.5899 77.2958 77.5703 77.4909 77.5312C77.4909 77.0227 77.4324 76.6902 77.3153 76.5338C77.1982 76.7293 77.0811 76.9054 76.964 77.0618C76.8468 77.2183 76.7492 77.3943 76.6712 77.5899ZM77.4324 78.4113H76.2027C75.8904 78.9589 75.5976 79.5065 75.3244 80.0542C75.0121 80.5627 74.8169 81.2081 74.7388 81.9904C76.0661 81.2472 76.964 80.0542 77.4324 78.4113Z" fill="black"/>
<path fill-rule="evenodd" clip-rule="evenodd" d="M102.494 77.0618C103.743 77.4921 105.031 77.5703 106.358 77.2965C107.686 76.9836 108.837 76.6316 109.813 76.2404C109.907 76.1778 110.013 76.1277 110.132 76.0902C110.39 75.7562 110.674 75.4347 110.982 75.1256C111.217 74.8909 111.47 74.6562 111.744 74.4215C112.056 74.1477 112.427 74.0108 112.856 74.0108C113.286 74.0499 113.598 74.2846 113.793 74.7149C113.988 75.1452 113.988 75.6537 113.793 76.2404C114.027 76.0839 114.262 75.8884 114.496 75.6537C114.769 75.3799 115.023 75.106 115.257 74.8322C115.53 74.5193 115.804 74.2455 116.077 74.0108C116.35 73.737 116.643 73.5414 116.955 73.4241C117.189 73.3459 117.443 73.385 117.716 73.5414C117.951 73.8544 118.048 74.2064 118.009 74.5975C118.009 74.9887 117.97 75.3994 117.892 75.8297C117.697 77.0032 117.482 78.1766 117.248 79.3501C117.014 80.4844 116.76 81.5797 116.487 82.6358C116.994 82.362 117.638 81.9708 118.419 81.4623C119.2 80.9147 120 80.3671 120.82 79.8195C121.64 79.2718 122.401 78.7438 123.103 78.2353C123.806 77.6877 124.333 77.2378 124.684 76.8858C124.773 76.8324 124.854 76.7669 124.927 76.6891C124.736 76.6487 124.557 76.5969 124.389 76.5338C124.077 76.3773 123.862 76.123 123.745 75.771C123.628 74.9887 123.842 74.2455 124.389 73.5414C124.935 72.7982 125.482 72.2702 126.029 71.9573C126.341 71.7617 126.653 71.6639 126.965 71.6639C127.278 71.6248 127.57 71.7617 127.844 72.0746C127.961 72.4658 127.98 72.8178 127.902 73.1307C127.863 73.4436 127.766 73.7566 127.61 74.0695C127.453 74.3433 127.258 74.6171 127.024 74.8909C126.829 75.1256 126.653 75.3603 126.497 75.595C126.887 75.5168 127.317 75.4776 127.785 75.4776C128.254 75.4776 128.546 75.6537 128.664 76.0057C128.664 76.6707 128.527 77.3161 128.254 77.9419C128.019 78.5286 127.746 79.1154 127.434 79.7021C127.122 80.2888 126.848 80.8951 126.614 81.521C126.38 82.1468 126.302 82.8118 126.38 83.5159C126.887 83.5159 127.356 83.3985 127.785 83.1638C128.215 82.9291 128.624 82.6749 129.015 82.4011C130.147 81.6188 131.22 80.7778 132.235 79.8781C133.289 78.9785 134.382 78.1375 135.515 77.3552C135.71 77.1987 135.963 76.9836 136.276 76.7098C136.588 76.436 136.881 76.2013 137.154 76.0057C137.171 75.993 137.188 75.9806 137.204 75.9683C137.236 75.9201 137.268 75.872 137.3 75.8242C137.313 75.806 137.325 75.7879 137.337 75.7698C137.35 75.7506 137.363 75.7314 137.376 75.7123C137.767 75.2038 138.177 74.7345 138.606 74.3042C139.035 73.8348 139.523 73.5023 140.07 73.3067C140.46 73.1503 140.851 73.1503 141.241 73.3067C141.319 73.385 141.378 73.4632 141.417 73.5414C141.456 73.6197 141.514 73.6979 141.592 73.7761C141.67 74.0891 141.67 74.3824 141.592 74.6562L141.358 75.3603C141.436 75.3603 141.514 75.3407 141.592 75.3016C141.71 75.2234 141.846 75.2038 142.002 75.243C142.158 75.3994 142.256 75.595 142.295 75.8297C142.334 76.0644 142.334 76.3186 142.295 76.5924C142.295 76.8662 142.276 77.1596 142.237 77.4725C142.197 77.7855 142.178 78.0788 142.178 78.3526C142.178 79.0176 142.373 79.4674 142.764 79.7021C143.661 79.7803 144.462 79.663 145.164 79.3501C145.867 78.998 146.531 78.646 147.155 78.294C147.741 77.9419 148.209 77.629 148.561 77.3552C148.951 77.0814 149.244 76.8662 149.439 76.7098C149.611 76.537 149.753 76.4253 149.865 76.3746C150.8 74.5008 151.808 72.7741 152.89 71.1945C153.007 71.0772 153.144 70.9207 153.3 70.7251C153.495 70.5295 153.69 70.3731 153.885 70.2557C154.12 70.0993 154.334 70.021 154.53 70.021C154.725 70.021 154.9 70.1579 155.057 70.4318C155.057 70.9011 154.959 71.2727 154.764 71.5465C154.569 71.7812 154.393 72.055 154.237 72.368C153.885 72.9547 153.358 73.6588 152.656 74.4802C151.992 75.2625 151.328 76.2013 150.665 77.2965C150.47 77.5703 150.314 77.8832 150.196 78.2353C150.079 78.5873 149.923 78.9198 149.728 79.2327C148.869 81.2276 148.069 83.2812 147.327 85.3934V85.5108C147.249 85.5108 147.23 85.5303 147.269 85.5694C147.308 85.6085 147.327 85.589 147.327 85.5108C147.874 84.4546 148.479 83.4376 149.142 82.4598C149.767 81.4819 150.47 80.5627 151.25 79.7021C151.563 79.2718 151.914 78.8611 152.304 78.47C152.734 78.0788 153.183 77.6877 153.651 77.2965C154.12 76.9445 154.627 76.5924 155.174 76.2404C155.72 75.8884 156.286 75.6732 156.872 75.595C157.457 75.5559 157.887 75.6732 158.16 75.947C158.472 76.2991 158.57 76.7685 158.453 77.3552C158.375 77.9419 158.238 78.3917 158.043 78.7047C158.941 78.2744 159.917 77.8441 160.971 77.4139C162.025 76.9445 163.118 76.5729 164.25 76.2991C164.317 76.2766 164.397 76.2542 164.49 76.2317C165.168 74.3448 165.888 72.5093 166.648 70.7251C168.17 67.2438 169.927 63.9777 171.918 60.9267C172.23 60.3791 172.601 59.8315 173.03 59.2839C173.499 58.6971 173.987 58.1104 174.494 57.5237C174.963 56.976 175.451 56.448 175.958 55.9395C176.466 55.3919 177.051 55.0007 177.715 54.766C178.027 54.6878 178.3 54.6487 178.535 54.6487C178.808 54.6096 179.062 54.6878 179.296 54.8834C179.686 55.3919 179.784 55.9982 179.589 56.7022C179.393 57.4063 179.218 58.0126 179.062 58.5211C178.203 60.3204 177.246 62.0415 176.192 63.6843C175.177 65.3272 174.104 66.9309 172.972 68.4955C171.84 70.0602 170.688 71.5857 169.517 73.072C168.346 74.5584 166.98 75.8688 165.418 77.0032C165.028 78.1375 164.657 79.2718 164.306 80.4062C163.915 81.5014 163.564 82.6553 163.252 83.8679C163.798 83.0856 164.364 82.2642 164.95 81.4036C165.574 80.504 166.179 79.663 166.765 78.8807C167.077 78.5678 167.409 78.1766 167.76 77.7072C168.151 77.2378 168.541 76.8076 168.931 76.4164C169.361 75.9861 169.771 75.6341 170.161 75.3603C170.591 75.0865 171 74.9691 171.391 75.0083C171.898 75.0865 172.23 75.3994 172.386 75.947C172.542 76.4947 172.64 77.1401 172.679 77.8832L172.796 79.9955C172.835 80.6996 172.991 81.2276 173.265 81.5797C173.655 81.4232 174.006 81.2472 174.319 81.0516C174.67 80.8169 175.041 80.5235 175.431 80.1715C175.822 79.8195 176.29 79.3892 176.836 78.8807C177.337 78.4149 177.985 77.867 178.781 77.2371L179.278 76.2404C179.473 75.9666 179.629 75.6537 179.746 75.3016C179.864 74.9496 180.117 74.7345 180.508 74.6562C180.898 74.7736 181.093 74.9496 181.093 75.1843C181.132 75.3799 181.074 75.6145 180.918 75.8884C180.913 75.8982 180.909 75.9081 180.905 75.9181C180.9 75.9292 180.895 75.9404 180.89 75.9515C180.882 75.9693 180.874 75.9872 180.866 76.0052C180.86 76.0176 180.854 76.0301 180.848 76.0426C180.943 76.0882 181.011 76.1932 181.052 76.3577C181.013 76.5533 180.896 76.6707 180.701 76.7098C180.599 76.7355 180.504 76.7697 180.419 76.8123C180.242 77.0715 180.135 77.3307 180.098 77.5899C180.059 77.7855 180.059 77.9419 180.098 78.0593C180.176 78.1766 180.156 78.3331 180.039 78.5286C179.805 78.646 179.649 78.5678 179.571 78.294C179.337 78.8025 179.102 79.2914 178.868 79.7608C178.634 80.1911 178.419 80.68 178.224 81.2276C179.083 80.6018 179.903 79.8586 180.683 78.998C181.464 78.0984 182.206 77.2183 182.908 76.3577C183.611 75.4581 184.275 74.6562 184.899 73.9521C185.563 73.209 186.188 72.6613 186.773 72.3093H186.832C186.832 72.2702 186.851 72.2506 186.89 72.2506C187.007 72.2897 187.124 72.3093 187.242 72.3093C187.359 72.2702 187.437 72.2897 187.476 72.368C187.671 72.4462 187.788 72.5831 187.827 72.7787L188.061 73.3654C188.022 74.9691 187.847 76.4164 187.534 77.7072C187.222 78.9589 186.91 80.2693 186.597 81.6383C187.534 81.2081 188.491 80.7582 189.467 80.2888C190.482 79.7803 191.477 79.311 192.453 78.8807C193.975 78.1766 195.439 77.4725 196.845 76.7685C197.04 76.6511 197.255 76.4947 197.489 76.2991C197.762 76.1035 198.016 76.123 198.25 76.3577C198.25 76.6707 198.094 76.9054 197.782 77.0618C197.508 77.1792 197.274 77.2965 197.079 77.4139C195.4 78.4309 193.605 79.3501 191.692 80.1715C189.818 80.9538 188.022 81.8143 186.305 82.7531C185.602 85.413 184.841 88.0337 184.021 90.6153C183.201 93.1969 182.264 95.6808 181.21 98.0668C180.195 100.453 179.044 102.722 177.756 104.873C176.467 107.024 175.003 108.98 173.364 110.74C172.232 111.953 170.905 113.068 169.382 114.085C167.86 115.141 166.298 115.688 164.698 115.727C163.761 115.727 163 115.571 162.414 115.258C161.789 114.945 161.204 114.574 160.657 114.143C160.111 113.517 159.681 112.755 159.369 111.855C159.018 110.994 158.842 110.017 158.842 108.921C158.803 106.848 159.174 105.01 159.955 103.406C160.696 101.802 161.458 100.375 162.238 99.1229C163.409 97.3627 164.756 95.7786 166.279 94.3704C167.762 92.9231 169.46 91.5541 171.373 90.2633C173.247 88.9725 175.335 87.7012 177.638 86.4495C179.942 85.1587 182.479 83.7897 185.251 82.3424C185.563 80.8951 185.895 79.4674 186.246 78.0593C186.636 76.612 186.871 75.0669 186.949 73.4241C186.324 73.9326 185.739 74.4998 185.192 75.1256C184.646 75.7515 184.099 76.3969 183.553 77.0618C183.045 77.6877 182.518 78.3331 181.972 78.998C181.464 79.6239 180.918 80.2302 180.332 80.8169L179.161 81.9904C178.731 82.3815 178.204 82.6162 177.58 82.6944C177.346 82.6162 177.131 82.4402 176.936 82.1664C176.858 81.5014 176.936 80.9147 177.17 80.4062C177.399 79.9097 177.627 79.4505 177.856 79.0286C177.548 79.3112 177.228 79.5748 176.895 79.8195L176.075 80.5235C175.802 80.7582 175.509 81.032 175.197 81.345C174.924 81.5797 174.592 81.8339 174.201 82.1077C173.85 82.3815 173.46 82.4793 173.03 82.4011C172.562 82.2837 172.25 81.9512 172.093 81.4036C171.937 80.856 171.84 80.2497 171.801 79.5848C171.801 78.8807 171.781 78.1962 171.742 77.5312C171.703 76.8271 171.547 76.2991 171.274 75.947C170.61 76.1426 170.103 76.4555 169.751 76.8858C169.4 77.277 169.01 77.6681 168.58 78.0593C168.229 78.4895 167.877 78.9394 167.526 79.4087C167.175 79.839 166.823 80.2888 166.472 80.7582C165.809 81.697 165.262 82.5184 164.833 83.2225C164.403 83.8875 164.052 84.4546 163.779 84.924C163.466 85.3934 163.213 85.7454 163.017 85.9801C162.822 86.2148 162.627 86.3322 162.432 86.3322C162.198 86.3322 162.041 86.254 161.963 86.0975C161.885 85.941 161.846 85.7454 161.846 85.5108C161.846 85.2761 161.885 85.0414 161.963 84.8067C162.002 84.5329 162.041 84.2982 162.08 84.1026C162.159 83.7114 162.256 83.3203 162.373 82.9291C162.451 82.4989 162.549 82.1077 162.666 81.7557C163.157 80.1331 163.675 78.5448 164.22 76.9908C164.035 77.0463 163.85 77.0895 163.664 77.1205C163.469 77.1596 163.313 77.1987 163.196 77.2378C162.103 77.5899 161.088 77.981 160.151 78.4113C159.214 78.8416 158.316 79.311 157.457 79.8195C156.208 81.697 154.842 83.3399 153.358 84.748C153.046 85.0218 152.617 85.3934 152.07 85.8628C151.563 86.3322 151.036 86.7625 150.489 87.1536C149.943 87.5056 149.416 87.7599 148.908 87.9164C148.401 88.0728 148.03 87.9946 147.796 87.6817C147.639 87.447 147.639 87.1536 147.796 86.8016C147.913 86.4495 148.049 86.1562 148.206 85.9215C148.323 85.7259 148.479 85.5303 148.674 85.3347C148.83 85.1392 148.986 84.9631 149.142 84.8067C150.235 83.7114 151.426 82.7531 152.714 81.9317C154.042 81.1103 155.33 80.3084 156.579 79.5261C156.774 79.0958 157.028 78.646 157.34 78.1766C157.652 77.7072 157.731 77.1401 157.574 76.4751C156.794 76.3969 156.13 76.5338 155.584 76.8858C155.037 77.2378 154.549 77.5899 154.12 77.9419C153.651 78.294 153.202 78.6851 152.773 79.1154L151.602 80.4062C149.572 82.8314 147.952 85.6085 146.742 88.7378C145.492 91.8279 144.556 95.3092 143.931 99.1816C143.892 99.3772 143.872 99.6314 143.872 99.9444L143.755 100.883C143.677 101.196 143.58 101.47 143.463 101.705C143.345 101.939 143.209 102.057 143.053 102.057C142.857 102.057 142.721 101.998 142.643 101.881C142.526 101.763 142.467 101.607 142.467 101.411C142.428 101.216 142.428 101 142.467 100.766C142.506 100.57 142.526 100.394 142.526 100.238C142.799 98.0081 143.228 95.6221 143.814 93.0796C144.399 90.5371 145.141 87.975 146.039 85.3934C146.937 82.8118 147.971 80.3084 149.142 77.8832C149.175 77.8122 149.208 77.7413 149.241 77.6707C149.129 77.7783 149 77.8687 148.853 77.9419C148.619 78.1375 148.346 78.3331 148.034 78.5286C147.76 78.6851 147.487 78.8611 147.214 79.0567C146.862 79.2132 146.492 79.3892 146.101 79.5848C145.75 79.7412 145.379 79.8977 144.989 80.0542C144.598 80.2106 144.188 80.328 143.759 80.4062C143.33 80.4453 142.861 80.4258 142.354 80.3475C141.768 80.0737 141.456 79.5065 141.417 78.646C141.378 77.7463 141.436 76.9249 141.592 76.1817C141.397 76.2991 141.183 76.4947 140.948 76.7685L140.363 77.4725C140.05 77.7072 139.758 77.981 139.484 78.294C139.211 78.6069 138.899 78.9198 138.548 79.2327C138.235 79.5457 137.903 79.8195 137.552 80.0542C137.201 80.2888 136.81 80.4062 136.381 80.4062C136.225 80.328 136.03 80.1715 135.795 79.9368C135.678 79.1154 135.815 78.3722 136.205 77.7072C136.28 77.5582 136.356 77.4108 136.434 77.2653C136.01 77.582 135.587 77.9249 135.163 78.294C134.265 79.0763 133.348 79.8586 132.411 80.6409C131.513 81.4232 130.596 82.1468 129.659 82.8118C128.722 83.4768 127.785 83.9853 126.848 84.3373C126.419 84.3764 126.068 84.2982 125.794 84.1026C125.482 83.6332 125.384 83.0856 125.502 82.4598C125.619 81.8339 125.814 81.1689 126.087 80.4649C126.399 79.7608 126.731 79.0763 127.083 78.4113C127.434 77.7072 127.668 77.0814 127.785 76.5338C127.473 76.5729 127.102 76.6316 126.673 76.7098C126.345 76.7396 126.029 76.7581 125.724 76.7652C125.682 76.8296 125.629 76.8894 125.563 76.9445C125.368 77.1009 125.192 77.2574 125.036 77.4139C123.787 78.5873 122.362 79.6826 120.761 80.6996C119.161 81.6774 117.658 82.6944 116.252 83.7506C115.784 85.5499 115.277 87.5252 114.73 89.6766C114.184 91.8279 113.559 94.0184 112.856 96.2479C112.154 98.4775 111.353 100.668 110.455 102.819C109.558 104.971 108.562 106.946 107.469 108.745C106.337 110.584 105.068 112.148 103.663 113.439C102.258 114.73 100.696 115.63 98.9786 116.138C97.7684 116.49 96.5973 116.568 95.4652 116.373C94.3332 116.177 93.3182 115.786 92.4203 115.199C91.5225 114.613 90.8003 113.85 90.2538 112.911C89.7073 111.972 89.434 110.936 89.434 109.801C89.434 108.784 89.5901 107.865 89.9025 107.044C90.2147 106.222 90.5661 105.479 90.9565 104.814C92.0495 102.858 93.5524 100.922 95.4652 99.0056C97.3781 97.128 99.4665 95.3092 101.731 93.549C103.956 91.7497 106.259 90.0286 108.64 88.3857C110.982 86.7038 113.169 85.1196 115.198 83.6332C115.511 82.1077 115.843 80.6213 116.194 79.1741C116.584 77.6877 116.877 76.123 117.072 74.4802C116.76 74.6367 116.448 74.8714 116.135 75.1843C115.862 75.4972 115.511 75.8688 115.081 76.2991C114.691 76.7293 114.203 77.2574 113.617 77.8832C113.032 78.47 112.271 79.1349 111.334 79.8781C111.139 79.9955 110.924 80.1519 110.69 80.3475C110.455 80.5431 110.221 80.7191 109.987 80.8756C109.714 80.9929 109.441 81.0712 109.167 81.1103C108.855 81.1494 108.582 81.0907 108.347 80.9342C108.035 80.5822 107.957 80.1911 108.113 79.7608C108.23 79.3305 108.367 78.9589 108.523 78.646C108.77 78.1509 109.081 77.6238 109.456 77.0647C108.559 77.4936 107.448 77.8251 106.124 78.0593C104.836 78.2548 103.606 78.1962 102.435 77.8832C102.279 78.3917 102.103 78.8807 101.908 79.3501C101.752 79.7803 101.518 80.1911 101.206 80.5822C100.971 80.9342 100.679 81.2863 100.327 81.6383C99.9758 81.9512 99.4879 82.1077 98.8633 82.1077L98.512 81.9317C98.3168 81.8143 98.1606 81.5797 98.0435 81.2276C98.0435 80.4844 98.1801 79.7999 98.4534 79.1741C98.7267 78.5091 99.0194 77.8832 99.3317 77.2965C99.644 76.7489 99.9563 76.2208 100.269 75.7123C100.62 75.1647 101.01 74.6953 101.44 74.3042C101.557 74.1868 101.772 74.0499 102.084 73.8935C102.318 73.8544 102.474 73.8935 102.552 74.0108C102.669 74.1282 102.767 74.2651 102.845 74.4215C102.806 74.7345 102.728 75.0083 102.611 75.243L102.26 75.947C102.416 76.2208 102.494 76.5924 102.494 77.0618ZM99.1561 80.9342C99.7807 80.7778 100.327 80.3084 100.796 79.5261C101.303 78.7438 101.537 78.0201 101.498 77.3552C101.42 77.3552 101.362 77.4334 101.323 77.5899C101.284 77.7072 101.186 77.7659 101.03 77.7659C100.757 77.7659 100.62 77.6094 100.62 77.2965C100.308 77.8441 100.015 78.3917 99.7416 78.9394C99.4293 79.487 99.2341 80.1519 99.1561 80.9342ZM109.343 79.8781C109.694 79.6826 110.026 79.4674 110.338 79.2327C110.69 78.998 111.021 78.7633 111.334 78.5286C111.451 78.2548 111.588 78.0006 111.744 77.7659C111.9 77.5312 112.036 77.2965 112.154 77.0618C112.31 76.8271 112.446 76.5729 112.563 76.2991C112.681 76.0253 112.739 75.6928 112.739 75.3016C112.739 75.2625 112.72 75.243 112.681 75.243V75.1843C111.119 76.3969 110.007 77.9615 109.343 79.8781ZM114.73 84.8653C113.051 86.0779 111.158 87.447 109.05 88.9725C106.942 90.4589 104.854 92.043 102.785 93.725C100.716 95.407 98.7639 97.128 96.9291 98.8882C95.0944 100.648 93.611 102.37 92.4789 104.051C92.1666 104.521 91.8543 105.049 91.542 105.636C91.1907 106.261 90.9174 106.907 90.7222 107.572C90.488 108.237 90.3514 108.941 90.3123 109.684C90.2733 110.427 90.4099 111.151 90.7222 111.855C91.1907 113.028 91.9714 113.967 93.0645 114.671C94.1575 115.415 95.5628 115.727 97.2805 115.61C98.9591 115.375 100.384 114.808 101.555 113.909C102.726 113.048 103.761 112.051 104.658 110.916C105.908 109.352 107.059 107.494 108.113 105.342C109.128 103.191 110.065 100.922 110.924 98.5362C111.783 96.1893 112.524 93.8228 113.149 91.4367C113.813 89.0507 114.398 86.8407 114.906 84.8067C114.906 84.7676 114.886 84.748 114.847 84.748C114.808 84.748 114.808 84.7676 114.847 84.8067L114.73 84.8653ZM124.916 75.3603C125.033 75.5168 125.228 75.595 125.502 75.595L126.556 74.3042C126.946 73.8739 127.141 73.3263 127.141 72.6613H127.024C126.556 73.0134 126.107 73.385 125.677 73.7761C125.287 74.1673 125.033 74.6953 124.916 75.3603ZM136.967 79.1154C137.396 78.9198 137.767 78.6851 138.079 78.4113C138.391 78.1375 138.704 77.8441 139.016 77.5312C138.938 77.3747 138.899 77.2378 138.899 77.1205C139.133 76.6902 139.387 76.2795 139.66 75.8884C139.972 75.4972 140.168 75.0278 140.246 74.4802C139.543 75.106 138.899 75.7906 138.313 76.5338C137.728 77.2378 137.279 78.0984 136.967 79.1154ZM155.466 80.9342C154.061 81.7948 152.753 82.714 151.543 83.6919C150.919 84.1613 150.314 84.6698 149.728 85.2174C149.142 85.765 148.693 86.43 148.381 87.2123C149.24 86.9776 149.982 86.606 150.606 86.0975C151.27 85.5499 151.875 85.0023 152.422 84.4546L154.061 82.8118C154.608 82.2251 155.135 81.5992 155.642 80.9342L155.584 80.8756C155.584 80.9147 155.544 80.9342 155.466 80.9342ZM178.593 57.289C178.632 57.1716 178.671 57.0152 178.71 56.8196C178.749 56.5849 178.769 56.3698 178.769 56.1742C178.769 55.9786 178.73 55.8221 178.652 55.7048C178.613 55.5874 178.496 55.5679 178.3 55.6461C177.637 55.959 176.934 56.4871 176.192 57.2303C175.49 57.9735 174.807 58.7949 174.143 59.6946C173.518 60.5942 172.913 61.4939 172.328 62.3935C171.781 63.2932 171.313 64.0559 170.922 64.6818C169.985 66.442 169.107 68.2413 168.287 70.0797C167.468 71.9181 166.667 73.8152 165.887 75.771C168.073 73.7761 170.025 71.5661 171.742 69.1409C173.46 66.7158 175.099 64.1733 176.661 61.5134L177.363 60.2226C177.598 59.7532 177.812 59.2643 178.008 58.7558L178.3 58.1691C178.417 57.9344 178.515 57.641 178.593 57.289ZM164.112 98.1255C163.448 98.9469 162.843 99.8074 162.297 100.707C161.75 101.607 161.262 102.604 160.833 103.699C160.247 105.264 159.916 106.731 159.838 108.1C159.72 109.508 159.857 110.721 160.247 111.738C160.599 112.794 161.184 113.596 162.004 114.143C162.824 114.73 163.839 114.965 165.049 114.847C166.376 114.73 167.469 114.378 168.328 113.791C169.187 113.244 170.065 112.618 170.963 111.914C172.876 110.31 174.574 108.374 176.057 106.105C177.502 103.836 178.79 101.411 179.922 98.8296C181.015 96.2871 181.972 93.7054 182.791 91.0847C183.611 88.4249 184.333 85.9019 184.958 83.5159C184.958 83.4768 184.938 83.4572 184.899 83.4572C184.86 83.4572 184.86 83.4768 184.899 83.5159C180.176 85.941 176.057 88.3075 172.544 90.6153C168.992 92.884 166.181 95.3874 164.112 98.1255Z" fill="black"/>
</svg>
